<?xml version="1.0" encoding="UTF-8" standalone="no"?>
<!DOCTYPE svg PUBLIC "-//W3C//DTD SVG 1.1//EN" "http://www.w3.org/Graphics/SVG/1.1/DTD/svg11.dtd">
<svg xmlns="http://www.w3.org/2000/svg" version="1.1" viewBox="0.00 0.00 1920.00 1080.00">
<g stroke-width="2.00" fill="none" stroke-linecap="butt">
<path stroke="#f7f7f7" vector-effect="non-scaling-stroke" d="
  M 1920.00 208.85
  L 1792.32 129.61
  A 3.00 2.99 51.6 0 0 1789.76 129.31
  Q 1780.36 132.52 1770.75 135.67
  Q 1769.99 135.92 1768.41 136.66
  C 1766.52 137.56 1763.58 138.04 1762.35 138.45
  Q 1737.05 146.95 1711.76 155.50
  Q 1708.99 156.44 1707.75 156.37
  Q 1691.08 155.48 1674.41 155.39
  Q 1669.41 155.37 1662.64 154.70
  Q 1656.76 154.11 1650.86 153.97
  Q 1638.52 153.68 1634.16 153.38
  Q 1622.21 152.57 1610.24 152.13
  Q 1609.71 152.11 1609.25 151.84
  Q 1607.32 150.71 1605.30 151.65
  Q 1604.84 151.86 1604.33 151.84
  Q 1555.52 149.47 1506.71 147.44
  C 1504.87 147.37 1502.87 146.77 1500.72 146.87
  C 1494.28 147.19 1487.79 146.49 1481.34 146.29
  C 1479.72 146.23 1477.75 145.04 1475.90 146.48
  A 1.07 1.04 -19.9 0 0 1475.50 147.30
  Q 1475.51 154.08 1474.05 160.69
  C 1473.63 162.63 1474.29 164.44 1474.08 166.50
  C 1473.29 174.01 1473.33 182.24 1470.79 189.38
  A 1.33 1.33 0.0 0 0 1470.81 190.35
  Q 1471.72 192.62 1471.51 194.99
  Q 1466.94 247.79 1462.28 300.59
  Q 1462.20 301.52 1461.70 303.61
  C 1461.11 306.07 1461.48 309.74 1461.35 311.30
  Q 1455.11 383.05 1448.71 455.94
  A 2.49 2.47 -64.4 0 0 1449.38 457.87
  Q 1500.12 511.20 1551.32 564.76
  C 1553.15 566.67 1555.05 566.83 1557.01 565.11
  Q 1557.39 564.77 1557.04 564.41
  L 1455.22 457.65
  A 0.54 0.54 0.0 0 1 1455.41 456.78
  L 1643.10 381.06
  Q 1644.12 380.66 1644.08 381.75
  L 1639.41 540.64
  Q 1639.36 542.35 1640.89 541.59
  L 1643.09 540.51
  Q 1643.59 540.26 1643.61 539.70
  L 1648.25 386.79
  A 0.21 0.21 0.0 0 1 1648.65 386.70
  L 1709.07 506.47
  A 1.07 1.07 0.0 0 1 1709.07 507.43
  L 1689.87 545.32
  A 0.81 0.81 0.0 0 0 1689.96 546.20
  Q 1691.13 547.65 1693.03 547.65
  Q 1693.63 547.65 1693.90 547.12
  L 1711.76 511.76
  A 0.50 0.50 0.0 0 1 1712.61 511.69
  Q 1736.10 543.26 1759.93 574.83
  Q 1761.72 577.19 1763.51 578.19
  Q 1765.73 579.41 1768.22 579.90
  A 0.44 0.44 0.0 0 0 1768.66 579.20
  L 1715.35 508.20
  A 0.29 0.29 0.0 0 1 1715.47 507.76
  L 1916.23 420.63
  A 0.46 0.46 0.0 0 1 1916.84 421.22
  L 1838.17 609.74
  Q 1837.95 610.27 1838.48 610.50
  L 1841.35 611.74
  Q 1841.98 612.02 1842.25 611.38
  L 1920.00 425.00"
/>
<path stroke="#f7f7f7" vector-effect="non-scaling-stroke" d="
  M 1920.00 585.99
  L 1866.55 621.60
  A 0.69 0.68 -50.9 0 0 1866.67 622.81
  L 1869.97 624.12
  Q 1870.48 624.32 1870.92 624.01
  L 1920.00 590.84"
/>
<path stroke="#f7f7f7" vector-effect="non-scaling-stroke" d="
  M 1099.54 233.68
  Q 1099.13 233.02 1098.79 232.90
  Q 1097.23 232.33 1097.55 234.03
  L 1111.21 306.80
  Q 1111.33 307.39 1110.73 307.36
  L 924.81 298.16
  Q 923.83 298.12 924.57 297.48
  L 1055.83 183.11
  A 0.62 0.61 -40.7 0 0 1055.90 182.25
  L 1054.35 180.39
  A 0.75 0.74 49.3 0 0 1053.29 180.31
  L 924.39 292.58
  Q 923.18 293.63 923.69 292.11
  L 962.69 173.73
  Q 962.88 173.18 963.46 173.10
  L 1038.37 163.26
  Q 1039.05 163.17 1038.88 162.50
  C 1038.28 160.22 1036.54 159.83 1034.30 160.12
  Q 998.61 164.85 963.07 169.40
  A 2.97 2.94 58.9 0 1 960.97 168.87
  L 873.70 105.77
  A 5.12 5.08 10.8 0 1 871.74 102.91
  L 861.54 63.75
  Q 861.02 61.73 858.98 62.17
  Q 786.49 77.83 715.75 93.23
  Q 713.01 93.83 710.24 93.40
  Q 684.18 89.36 657.55 85.22
  A 1.56 1.54 28.3 0 0 656.26 85.60
  L 548.36 180.82
  A 3.12 3.09 -16.9 0 0 547.34 182.71
  Q 531.10 299.47 514.59 415.97
  Q 514.29 418.11 515.27 419.44
  A 1.35 1.34 -27.9 0 0 516.80 419.91
  L 606.52 388.65
  Q 607.66 388.26 608.76 388.75
  L 692.96 426.42
  A 3.72 3.69 51.8 0 0 695.16 426.69
  L 809.08 406.42
  Q 809.66 406.32 809.97 406.82
  L 909.61 566.90
  A 2.67 2.66 -12.0 0 0 911.51 568.13
  L 982.27 577.84
  A 6.10 6.03 62.9 0 1 984.42 578.55
  L 1156.05 673.13
  A 1.79 1.77 29.9 0 0 1158.43 672.50
  L 1295.14 447.42
  A 1.75 1.72 52.3 0 0 1295.31 445.99
  Q 1276.51 385.77 1257.81 325.88
  C 1257.10 323.60 1255.94 322.52 1253.54 322.71
  Q 1252.96 322.76 1253.14 323.31
  L 1290.72 443.80
  A 0.51 0.50 83.4 0 1 1290.20 444.46
  L 1118.30 431.47
  Q 1117.45 431.41 1117.85 430.66
  L 1181.65 310.82
  Q 1182.10 309.97 1181.19 309.67
  Q 1178.47 308.76 1177.02 311.49
  Q 1146.90 368.09 1117.17 423.96
  Q 1116.34 425.51 1116.33 423.75
  L 1115.40 310.66
  Q 1115.40 310.27 1115.72 310.03
  L 1144.19 288.68
  A 1.99 1.99 0.0 0 0 1144.28 285.57
  Q 1143.07 284.56 1142.22 285.20
  Q 1128.86 295.36 1115.61 305.44
  A 0.57 0.57 0.0 0 1 1114.70 305.09
  Q 1108.25 270.62 1101.74 236.00
  Q 1101.53 234.88 1100.18 234.25
  A 1.56 1.52 85.9 0 1 1099.54 233.68"
/>
<path stroke="#f7f7f7" vector-effect="non-scaling-stroke" d="
  M 1087.38 159.45
  Q 1087.24 158.70 1087.92 159.04
  Q 1133.58 182.16 1179.29 205.15
  Q 1182.00 206.51 1181.55 202.90
  A 1.62 1.60 -80.7 0 0 1180.67 201.66
  L 1085.58 153.72
  Q 1085.10 153.48 1084.57 153.55
  L 1041.26 159.19
  A 0.46 0.46 0.0 0 0 1040.88 159.79
  C 1041.63 162.14 1043.38 162.65 1045.80 162.33
  Q 1061.82 160.15 1077.61 158.13
  A 0.45 0.45 0.0 0 1 1077.96 158.91
  Q 1067.57 167.82 1057.46 176.97
  Q 1056.08 178.22 1057.43 179.64
  A 1.71 1.70 47.6 0 0 1059.79 179.75
  L 1083.19 159.18
  A 0.26 0.26 0.0 0 1 1083.62 159.33
  Q 1089.64 191.41 1095.54 223.52
  Q 1095.94 225.66 1098.47 227.83
  C 1099.23 228.47 1099.59 229.43 1100.06 230.27
  Q 1100.23 230.58 1100.57 230.46
  Q 1100.80 230.37 1100.74 230.02
  Q 1093.99 194.55 1087.38 159.45"
/>
<path stroke="#f7f7f7" vector-effect="non-scaling-stroke" d="
  M 1184.63 204.63
  Q 1183.56 205.82 1184.06 207.11
  Q 1184.26 207.63 1184.76 207.88
  L 1220.38 225.84
  A 0.57 0.57 0.0 0 1 1220.46 226.81
  Q 1197.03 244.19 1173.69 261.89
  C 1171.91 263.24 1171.36 265.08 1171.68 267.14
  Q 1171.80 267.92 1172.43 267.45
  L 1218.02 233.24
  A 0.39 0.38 -4.1 0 1 1218.59 233.73
  L 1212.37 244.97
  A 0.41 0.40 84.8 0 0 1212.98 245.48
  Q 1219.68 239.99 1223.31 232.17
  Q 1223.57 231.62 1224.15 231.78
  Q 1226.44 232.38 1227.32 230.40
  C 1228.38 228.03 1226.30 224.63 1224.07 223.52
  Q 1204.64 213.81 1185.29 203.97
  Q 1184.86 203.75 1184.65 204.18
  Q 1184.55 204.38 1184.63 204.63"
/>
<path stroke="#f7f7f7" vector-effect="non-scaling-stroke" d="
  M 1229.16 233.90
  A 0.63 0.63 0.0 0 0 1228.06 233.70
  L 1226.17 236.10
  A 0.63 0.63 0.0 0 0 1226.07 236.68
  L 1251.97 319.53
  A 0.63 0.63 0.0 0 0 1252.54 319.97
  L 1255.07 320.12
  A 0.63 0.63 0.0 0 0 1255.71 319.30
  L 1229.16 233.90"
/>
<path stroke="#f7f7f7" vector-effect="non-scaling-stroke" d="
  M 1202.63 263.62
  Q 1191.52 284.01 1179.98 305.98
  Q 1179.38 307.11 1180.66 307.10
  L 1182.98 307.09
  Q 1183.64 307.09 1183.94 306.51
  L 1211.46 254.74
  A 0.70 0.69 -7.1 0 0 1210.38 253.90
  Q 1207.91 256.13 1206.03 258.40
  Q 1204.42 260.33 1202.63 263.62"
/>
<path stroke="#f7f7f7" vector-effect="non-scaling-stroke" d="
  M 1641.20 606.08
  Q 1641.71 603.40 1641.84 599.75
  Q 1642.81 572.71 1643.43 545.64
  Q 1643.44 545.23 1643.03 545.16
  Q 1639.19 544.41 1639.08 547.86
  Q 1637.87 583.30 1636.96 618.40
  A 0.42 0.42 0.0 0 0 1637.79 618.53
  C 1639.01 614.32 1640.60 609.17 1641.20 606.08"
/>
<path stroke="#f7f7f7" vector-effect="non-scaling-stroke" d="
  M 1675.67 573.24
  C 1674.68 575.19 1675.73 578.56 1676.19 580.44
  A 0.42 0.42 0.0 0 0 1676.98 580.53
  L 1691.45 551.97
  Q 1691.67 551.53 1691.34 551.18
  Q 1690.03 549.78 1688.18 549.92
  Q 1687.59 549.97 1687.32 550.50
  Q 1681.46 561.89 1675.67 573.24"
/>
<path stroke="#f7f7f7" vector-effect="non-scaling-stroke" d="
  M 1559.45 568.88
  Q 1558.13 569.08 1556.93 569.58
  A 0.56 0.56 0.0 0 0 1556.74 570.48
  L 1628.98 646.23
  A 0.84 0.84 0.0 0 0 1630.41 645.85
  L 1631.15 642.94
  Q 1631.29 642.37 1630.89 641.94
  Q 1579.30 587.51 1561.16 568.84
  Q 1560.69 568.35 1559.97 568.71
  Q 1559.72 568.84 1559.45 568.88"
/>
<path stroke="#f7f7f7" vector-effect="non-scaling-stroke" d="
  M 1635.51 646.49
  Q 1632.76 647.07 1633.00 649.77
  Q 1633.05 650.29 1633.40 650.68
  L 1636.72 654.30
  A 1.36 1.35 -21.3 0 0 1637.71 654.73
  L 1690.25 655.10
  A 1.30 1.29 86.3 0 0 1691.54 653.63
  Q 1691.36 652.30 1690.66 651.49
  Q 1690.03 650.76 1688.61 650.75
  Q 1665.42 650.70 1642.28 650.43
  A 0.42 0.42 0.0 0 1 1641.91 649.82
  L 1673.73 586.96
  Q 1673.97 586.48 1673.85 585.95
  L 1672.75 581.30
  A 0.55 0.54 51.9 0 0 1671.73 581.17
  L 1641.05 641.89
  A 0.28 0.27 59.7 0 1 1640.53 641.75
  L 1641.18 625.07
  A 0.39 0.39 0.0 0 0 1640.42 624.92
  Q 1638.21 630.92 1636.52 636.59
  C 1635.60 639.67 1636.46 642.62 1636.04 645.91
  Q 1635.98 646.39 1635.51 646.49"
/>
<path stroke="#f7f7f7" vector-effect="non-scaling-stroke" d="
  M 1827.33 647.05
  L 1840.08 616.54
  A 0.98 0.98 0.0 0 0 1839.91 615.51
  Q 1838.68 614.09 1836.76 614.39
  Q 1836.19 614.48 1835.97 615.01
  L 1821.84 648.84
  A 0.50 0.50 0.0 0 1 1820.97 648.95
  Q 1798.28 618.61 1775.59 588.39
  Q 1772.95 584.87 1768.16 585.05
  Q 1767.52 585.07 1767.90 585.59
  L 1817.18 651.05
  A 0.57 0.57 0.0 0 1 1816.72 651.97
  L 1695.64 650.90
  Q 1694.53 650.89 1694.30 651.98
  Q 1693.96 653.63 1695.48 654.69
  Q 1696.47 655.38 1698.17 655.36
  Q 1758.47 654.73 1818.75 656.29
  C 1820.66 656.34 1822.72 656.08 1824.52 654.90
  Q 1844.45 641.77 1864.77 628.09
  A 1.33 1.32 48.7 0 0 1864.90 625.99
  C 1863.50 624.77 1861.80 624.89 1860.21 625.94
  Q 1844.04 636.59 1827.96 647.56
  A 0.42 0.42 0.0 0 1 1827.33 647.05"
/>
<path stroke="#f7f7f7" vector-effect="non-scaling-stroke" d="
  M 776.14 224.52
  A 0.31 0.31 0.0 0 0 776.68 224.50
  L 855.19 68.58
  A 0.31 0.31 0.0 0 0 854.79 68.15
  L 717.83 127.83
  A 0.31 0.31 0.0 0 0 717.68 128.27
  L 776.14 224.52"
/>
<path stroke="#f7f7f7" vector-effect="non-scaling-stroke" d="
  M 858.33 70.75
  L 779.65 227.01
  Q 779.38 227.55 779.97 227.67
  L 834.24 239.49
  Q 834.95 239.65 835.06 238.93
  Q 845.95 167.94 856.40 98.54
  Q 856.68 96.73 857.49 95.85
  A 1.74 1.74 0.0 0 1 859.82 95.64
  L 866.74 100.83
  Q 867.42 101.34 867.20 100.52
  L 859.48 70.87
  Q 859.07 69.29 858.33 70.75"
/>
<path stroke="#f7f7f7" vector-effect="non-scaling-stroke" d="
  M 716.91 124.02
  L 839.40 70.72
  A 0.25 0.25 0.0 0 0 839.25 70.25
  L 715.52 97.13
  A 0.91 0.90 -8.2 0 0 714.81 98.07
  L 716.44 123.74
  Q 716.48 124.21 716.91 124.02"
/>
<path stroke="#f7f7f7" vector-effect="non-scaling-stroke" d="
  M 666.54 90.42
  A 0.32 0.32 0.0 0 0 666.31 91.00
  L 712.11 122.96
  A 0.32 0.32 0.0 0 0 712.62 122.68
  L 711.01 97.62
  A 0.32 0.32 0.0 0 0 710.74 97.32
  L 666.54 90.42"
/>
<path stroke="#f7f7f7" vector-effect="non-scaling-stroke" d="
  M 667.78 226.06
  L 712.06 128.42
  A 0.92 0.92 0.0 0 0 711.74 127.29
  L 660.11 91.26
  Q 659.51 90.85 659.56 91.57
  Q 661.08 115.39 661.71 139.26
  Q 661.98 149.51 662.74 159.22
  Q 665.35 192.65 666.75 225.86
  Q 666.84 228.13 667.78 226.06"
/>
<path stroke="#f7f7f7" vector-effect="non-scaling-stroke" d="
  M 662.42 214.49
  Q 661.23 193.38 660.57 172.24
  Q 659.83 148.61 657.75 125.04
  C 656.81 114.53 656.56 102.98 655.85 91.90
  Q 655.80 91.10 655.20 91.63
  L 553.40 181.49
  Q 552.68 182.12 553.56 182.52
  L 662.99 232.58
  A 0.31 0.30 -79.0 0 0 663.42 232.28
  Q 662.92 223.37 662.42 214.49"
/>
<path stroke="#f7f7f7" vector-effect="non-scaling-stroke" d="
  M 862.34 102.65
  L 899.95 228.98
  A 0.27 0.27 0.0 0 0 900.47 228.85
  Q 898.35 218.95 895.75 209.17
  Q 882.63 159.74 869.73 110.26
  C 869.15 108.03 868.91 106.72 866.90 105.32
  Q 864.81 103.87 862.81 102.32
  A 0.30 0.30 0.0 0 0 862.34 102.65"
/>
<path stroke="#f7f7f7" vector-effect="non-scaling-stroke" d="
  M 903.62 253.69
  L 859.89 107.61
  Q 859.29 105.60 858.97 107.68
  L 838.79 238.75
  Q 838.73 239.17 838.46 239.50
  L 838.26 239.75
  Q 837.84 240.27 838.50 240.41
  L 902.85 254.52
  Q 903.93 254.75 903.62 253.69"
/>
<path stroke="#f7f7f7" vector-effect="non-scaling-stroke" d="
  M 874.37 110.81
  A 0.31 0.31 0.0 0 0 873.89 111.14
  L 912.18 258.06
  A 0.31 0.31 0.0 0 1 912.14 258.30
  L 910.01 261.84
  A 0.31 0.31 0.0 0 0 909.98 262.09
  L 919.04 292.42
  A 0.31 0.31 0.0 0 0 919.63 292.43
  L 959.17 172.45
  A 0.31 0.31 0.0 0 0 959.06 172.10
  L 874.37 110.81"
/>
<path stroke="#f7f7f7" vector-effect="non-scaling-stroke" d="
  M 713.38 134.66
  L 668.72 233.18
  Q 668.51 233.65 669.02 233.62
  L 730.48 229.91
  Q 731.08 229.87 730.98 229.27
  L 714.19 134.76
  Q 713.95 133.40 713.38 134.66"
/>
<path stroke="#f7f7f7" vector-effect="non-scaling-stroke" d="
  M 772.89 226.39
  L 719.46 138.47
  Q 718.39 136.71 718.75 138.74
  L 734.72 228.60
  A 1.07 1.07 0.0 0 0 735.84 229.48
  L 772.46 227.23
  A 0.55 0.55 0.0 0 0 772.89 226.39"
/>
<path stroke="#f7f7f7" vector-effect="non-scaling-stroke" d="
  M 661.37 236.56
  A 0.35 0.35 0.0 0 0 661.30 235.97
  L 554.63 187.16
  A 0.35 0.35 0.0 0 0 554.18 187.65
  L 605.26 280.23
  A 0.35 0.35 0.0 0 0 605.78 280.33
  L 661.37 236.56"
/>
<path stroke="#f7f7f7" vector-effect="non-scaling-stroke" d="
  M 602.39 282.79
  L 550.83 189.38
  A 0.35 0.35 0.0 0 0 550.17 189.50
  L 519.73 408.21
  Q 519.49 409.98 520.47 408.49
  L 602.34 283.94
  A 1.12 1.12 0.0 0 0 602.39 282.79"
/>
<path stroke="#f7f7f7" vector-effect="non-scaling-stroke" d="
  M 773.64 232.02
  Q 773.99 230.89 772.81 230.97
  L 736.00 233.31
  A 0.38 0.37 83.9 0 0 735.65 233.75
  L 749.24 310.03
  A 0.19 0.18 -41.5 0 0 749.60 310.05
  L 773.64 232.02"
/>
<path stroke="#f7f7f7" vector-effect="non-scaling-stroke" d="
  M 779.05 231.32
  A 0.02 0.02 0.0 0 0 779.03 231.34
  L 811.42 392.61
  A 0.02 0.02 0.0 0 1 811.40 392.63
  L 811.37 392.62
  A 0.02 0.02 0.0 0 1 811.35 392.60
  L 834.34 243.43
  A 0.02 0.02 0.0 0 0 834.32 243.41
  L 779.05 231.32"
/>
<path stroke="#f7f7f7" vector-effect="non-scaling-stroke" d="
  M 745.21 312.56
  A 0.32 0.32 0.0 0 0 745.75 312.27
  L 731.80 233.79
  A 0.32 0.32 0.0 0 0 731.46 233.53
  L 670.44 237.38
  A 0.32 0.32 0.0 0 0 670.23 237.92
  L 745.21 312.56"
/>
<path stroke="#f7f7f7" vector-effect="non-scaling-stroke" d="
  M 775.93 237.32
  L 751.12 318.01
  A 1.05 1.05 0.0 0 0 751.28 318.95
  L 807.59 395.18
  A 0.24 0.23 -69.0 0 0 808.01 394.99
  L 776.38 237.34
  A 0.23 0.23 0.0 0 0 775.93 237.32"
/>
<path stroke="#f7f7f7" vector-effect="non-scaling-stroke" d="
  M 609.75 282.72
  L 741.92 315.23
  A 0.21 0.21 0.0 0 0 742.11 314.88
  L 665.72 238.77
  A 0.67 0.67 0.0 0 0 664.83 238.71
  L 609.63 282.16
  A 0.32 0.32 0.0 0 0 609.75 282.72"
/>
<path stroke="#f7f7f7" vector-effect="non-scaling-stroke" d="
  M 814.03 395.06
  Q 813.53 395.59 813.68 396.07
  A 0.59 0.59 0.0 0 0 814.74 396.23
  L 905.30 261.97
  A 2.19 2.19 0.0 0 0 903.96 258.61
  L 838.76 244.39
  Q 837.92 244.20 837.79 245.06
  Q 826.55 318.61 815.17 392.63
  C 815.04 393.46 814.66 394.39 814.03 395.06"
/>
<path stroke="#f7f7f7" vector-effect="non-scaling-stroke" d="
  M 916.95 298.51
  Q 913.70 286.97 909.94 275.44
  Q 908.46 270.92 907.74 266.29
  A 0.37 0.37 0.0 0 0 907.06 266.14
  L 822.88 390.90
  A 0.22 0.21 -5.5 0 0 823.21 391.17
  L 916.69 299.45
  A 0.96 0.95 60.7 0 0 916.95 298.51"
/>
<path stroke="#f7f7f7" vector-effect="non-scaling-stroke" d="
  M 693.76 420.66
  A 0.32 0.32 0.0 0 0 694.32 420.63
  L 745.90 320.50
  A 0.32 0.32 0.0 0 0 745.70 320.04
  L 609.79 286.63
  A 0.32 0.32 0.0 0 0 609.44 287.11
  L 693.76 420.66"
/>
<path stroke="#f7f7f7" vector-effect="non-scaling-stroke" d="
  M 521.65 413.58
  A 0.33 0.33 0.0 0 0 522.04 414.07
  L 605.63 384.91
  A 0.33 0.33 0.0 0 0 605.85 384.59
  L 603.24 290.58
  A 0.33 0.33 0.0 0 0 602.63 290.41
  L 521.65 413.58"
/>
<path stroke="#f7f7f7" vector-effect="non-scaling-stroke" d="
  M 606.99 291.50
  L 609.55 384.31
  A 1.02 1.02 0.0 0 0 610.16 385.21
  L 688.70 420.38
  A 0.21 0.20 85.4 0 0 688.95 420.08
  L 607.61 291.31
  Q 606.95 290.27 606.99 291.50"
/>
<path stroke="#f7f7f7" vector-effect="non-scaling-stroke" d="
  M 1105.77 311.34
  A 0.38 0.38 0.0 0 0 1105.61 310.62
  L 923.60 301.44
  A 0.38 0.38 0.0 0 0 923.27 302.04
  L 977.76 379.61
  A 0.38 0.38 0.0 0 0 978.25 379.73
  L 1105.77 311.34"
/>
<path stroke="#f7f7f7" vector-effect="non-scaling-stroke" d="
  M 817.26 402.73
  L 972.99 381.12
  Q 974.19 380.96 973.49 379.96
  L 919.13 302.67
  A 0.21 0.21 0.0 0 0 918.82 302.64
  L 817.07 402.35
  Q 816.59 402.82 817.26 402.73"
/>
<path stroke="#f7f7f7" vector-effect="non-scaling-stroke" d="
  M 1108.72 314.69
  A 0.34 0.34 0.0 0 0 1108.26 314.24
  L 982.65 381.68
  A 0.34 0.34 0.0 0 0 982.69 382.30
  L 1059.96 410.79
  A 0.34 0.34 0.0 0 0 1060.38 410.62
  L 1108.72 314.69"
/>
<path stroke="#f7f7f7" vector-effect="non-scaling-stroke" d="
  M 1063.90 411.89
  A 0.04 0.04 0.0 0 0 1063.91 411.94
  Q 1065.22 412.75 1066.75 413.31
  Q 1089.03 421.48 1111.55 429.85
  A 0.72 0.72 0.0 0 0 1112.41 429.55
  Q 1112.60 429.24 1112.60 428.75
  Q 1112.33 373.22 1111.70 317.72
  A 0.13 0.13 0.0 0 0 1111.45 317.66
  L 1063.90 411.89"
/>
<path stroke="#f7f7f7" vector-effect="non-scaling-stroke" d="
  M 807.89 402.77
  A 0.31 0.31 0.0 0 0 808.09 402.29
  L 749.51 322.83
  A 0.31 0.31 0.0 0 0 748.98 322.87
  L 697.94 421.82
  A 0.31 0.31 0.0 0 0 698.27 422.27
  L 807.89 402.77"
/>
<path stroke="#f7f7f7" vector-effect="non-scaling-stroke" d="
  M 974.43 385.10
  A 0.37 0.37 0.0 0 0 974.03 384.60
  L 814.92 406.79
  A 0.37 0.37 0.0 0 0 814.66 407.35
  L 910.55 561.34
  A 0.37 0.37 0.0 0 0 911.21 561.27
  L 974.43 385.10"
/>
<path stroke="#f7f7f7" vector-effect="non-scaling-stroke" d="
  M 980.17 385.33
  A 0.32 0.32 0.0 0 0 979.74 385.68
  L 999.37 530.32
  A 0.32 0.32 0.0 0 0 999.97 530.42
  L 1058.40 414.55
  A 0.32 0.32 0.0 0 0 1058.22 414.11
  L 980.17 385.33"
/>
<path stroke="#f7f7f7" vector-effect="non-scaling-stroke" d="
  M 996.15 536.36
  A 0.33 0.33 0.0 0 0 996.37 536.00
  L 976.78 391.46
  A 0.33 0.33 0.0 0 0 976.14 391.39
  L 914.69 562.66
  A 0.33 0.33 0.0 0 0 915.10 563.09
  L 996.15 536.36"
/>
<path stroke="#f7f7f7" vector-effect="non-scaling-stroke" d="
  M 1061.70 416.31
  L 1005.22 528.36
  A 0.22 0.22 0.0 0 0 1005.56 528.62
  L 1110.53 433.98
  A 0.40 0.40 0.0 0 0 1110.40 433.31
  L 1062.87 415.84
  A 0.95 0.94 -66.6 0 0 1061.70 416.31"
/>
<path stroke="#f7f7f7" vector-effect="non-scaling-stroke" d="
  M 1117.28 434.76
  A 0.43 0.43 0.0 0 0 1116.83 435.27
  L 1157.65 665.11
  A 0.43 0.43 0.0 0 0 1158.44 665.26
  L 1290.06 448.59
  A 0.43 0.43 0.0 0 0 1289.72 447.94
  L 1117.28 434.76"
/>
<path stroke="#f7f7f7" vector-effect="non-scaling-stroke" d="
  M 1113.00 436.81
  L 1001.94 536.96
  Q 1001.31 537.52 1001.96 538.07
  L 1153.01 665.76
  Q 1154.12 666.70 1153.87 665.26
  Q 1134.63 556.76 1115.23 447.48
  C 1114.70 444.51 1113.72 440.74 1113.67 437.11
  A 0.40 0.40 0.0 0 0 1113.00 436.81"
/>
<path stroke="#f7f7f7" vector-effect="non-scaling-stroke" d="
  M 995.18 541.11
  A 0.31 0.31 0.0 0 0 994.79 540.71
  L 920.76 565.09
  A 0.31 0.31 0.0 0 0 920.81 565.69
  L 982.73 574.12
  A 0.31 0.31 0.0 0 0 983.07 573.92
  L 995.18 541.11"
/>
<path stroke="#f7f7f7" vector-effect="non-scaling-stroke" d="
  M 999.05 541.36
  L 986.73 574.75
  A 0.77 0.77 0.0 0 0 987.08 575.69
  L 1139.27 659.62
  A 0.23 0.23 0.0 0 0 1139.53 659.24
  L 999.78 541.16
  Q 999.28 540.74 999.05 541.36"
/>
<path stroke="#f7f7f7" vector-effect="non-scaling-stroke" d="
  M 1920.00 213.82
  L 1794.51 136.01
  Q 1793.57 135.42 1793.70 136.53
  L 1818.73 354.49
  A 0.54 0.54 0.0 0 0 1819.57 354.88
  L 1920.00 286.57"
/>
<path stroke="#f7f7f7" vector-effect="non-scaling-stroke" d="
  M 1920.00 291.57
  L 1821.81 358.59
  A 0.44 0.43 42.0 0 0 1821.85 359.33
  L 1920.00 413.05"
/>
<path stroke="#f7f7f7" vector-effect="non-scaling-stroke" d="
  M 1717.21 206.90
  A 0.32 0.32 0.0 0 0 1717.17 207.31
  L 1813.17 349.52
  A 0.32 0.32 0.0 0 0 1813.75 349.30
  L 1789.34 136.54
  A 0.32 0.32 0.0 0 0 1788.80 136.35
  L 1717.21 206.90"
/>
<path stroke="#f7f7f7" vector-effect="non-scaling-stroke" d="
  M 1711.65 160.10
  A 0.31 0.31 0.0 0 0 1711.44 160.43
  L 1715.79 201.43
  A 0.31 0.31 0.0 0 0 1716.32 201.62
  L 1781.83 137.11
  A 0.31 0.31 0.0 0 0 1781.52 136.60
  L 1711.65 160.10"
/>
<path stroke="#f7f7f7" vector-effect="non-scaling-stroke" d="
  M 1610.45 175.86
  Q 1608.32 166.50 1606.90 157.61
  A 1.66 1.66 0.0 0 0 1605.33 156.21
  L 1502.32 151.55
  A 0.31 0.31 0.0 0 0 1502.23 152.17
  L 1609.99 178.72
  Q 1612.27 179.29 1610.90 177.44
  Q 1610.77 177.27 1610.45 175.86"
/>
<path stroke="#f7f7f7" vector-effect="non-scaling-stroke" d="
  M 1494.50 166.88
  C 1496.33 168.66 1496.87 170.65 1498.13 172.37
  Q 1549.40 241.89 1600.60 311.46
  C 1604.20 316.35 1609.56 324.76 1613.67 329.08
  Q 1615.84 331.37 1617.13 333.44
  Q 1619.87 337.88 1620.03 338.09
  Q 1632.98 355.14 1645.27 372.43
  A 0.45 0.45 0.0 0 0 1646.05 372.33
  L 1710.92 209.02
  Q 1711.23 208.24 1710.42 208.05
  Q 1664.33 196.79 1617.93 185.17
  C 1616.32 184.77 1614.44 185.04 1612.72 184.39
  Q 1609.20 183.07 1609.12 183.05
  Q 1555.10 169.78 1501.13 156.34
  Q 1501.03 156.31 1497.38 155.67
  Q 1495.47 155.33 1493.76 154.29
  A 1.22 1.17 -32.3 0 0 1492.97 154.13
  Q 1488.72 154.69 1485.01 152.60
  A 0.43 0.43 0.0 0 0 1484.38 153.07
  Q 1485.10 156.18 1487.78 157.90
  Q 1488.20 158.16 1488.42 158.60
  Q 1490.80 163.26 1494.50 166.88"
/>
<path stroke="#f7f7f7" vector-effect="non-scaling-stroke" d="
  M 1478.02 178.11
  L 1487.33 165.95
  Q 1487.64 165.54 1487.44 165.07
  Q 1486.50 162.93 1484.43 161.88
  Q 1484.02 161.67 1483.86 161.24
  Q 1482.50 157.60 1479.68 154.80
  Q 1479.04 154.17 1479.07 155.07
  L 1479.28 162.05
  Q 1479.30 162.59 1479.02 163.05
  Q 1478.56 163.82 1478.53 164.25
  Q 1477.97 171.11 1477.32 177.84
  A 0.39 0.39 0.0 0 0 1478.02 178.11"
/>
<path stroke="#f7f7f7" vector-effect="non-scaling-stroke" d="
  M 1610.13 158.02
  L 1614.60 179.40
  A 0.91 0.89 -89.6 0 0 1615.27 180.09
  L 1710.77 203.68
  Q 1711.70 203.91 1711.60 202.96
  L 1707.17 161.48
  Q 1707.10 160.86 1706.48 160.83
  Q 1688.39 159.73 1670.29 158.56
  C 1664.01 158.16 1656.82 158.36 1650.07 157.98
  Q 1638.70 157.33 1634.92 157.24
  Q 1622.76 156.92 1610.48 156.26
  A 0.91 0.90 -68.7 0 0 1609.74 156.59
  Q 1608.96 157.53 1609.69 157.62
  Q 1610.05 157.66 1610.13 158.02"
/>
<path stroke="#f7f7f7" vector-effect="non-scaling-stroke" d="
  M 1486.88 171.88
  C 1485.32 174.42 1482.13 178.25 1479.06 181.17
  Q 1477.02 183.11 1476.73 186.25
  Q 1471.37 243.97 1466.36 301.72
  Q 1459.84 376.90 1453.50 451.93
  A 0.58 0.57 -8.6 0 0 1454.29 452.51
  L 1642.41 376.62
  A 0.54 0.54 0.0 0 0 1642.64 375.80
  Q 1627.63 355.61 1612.64 335.19
  C 1611.29 333.35 1609.24 331.88 1607.93 329.65
  Q 1605.33 325.25 1605.19 325.07
  Q 1552.28 253.34 1499.49 181.53
  Q 1498.46 180.13 1496.54 178.43
  C 1493.53 175.76 1492.89 171.83 1490.28 168.76
  A 0.59 0.59 0.0 0 0 1489.43 168.71
  Q 1488.06 169.95 1486.88 171.88"
/>
<path stroke="#f7f7f7" vector-effect="non-scaling-stroke" d="
  M 1812.80 356.78
  L 1717.05 214.98
  Q 1716.28 213.84 1716.27 215.22
  L 1714.79 365.96
  A 1.74 1.73 87.2 0 0 1716.71 367.71
  L 1812.46 357.51
  Q 1813.24 357.43 1812.80 356.78"
/>
<path stroke="#f7f7f7" vector-effect="non-scaling-stroke" d="
  M 1711.42 219.65
  L 1650.08 374.00
  A 0.57 0.51 6.6 0 0 1650.69 374.69
  L 1709.90 368.51
  A 1.15 1.15 0.0 0 0 1710.93 367.37
  L 1711.88 219.74
  A 0.24 0.24 0.0 0 0 1711.42 219.65"
/>
<path stroke="#f7f7f7" vector-effect="non-scaling-stroke" d="
  M 1812.09 362.42
  A 0.32 0.32 0.0 0 0 1811.79 361.92
  L 1715.20 372.25
  A 0.32 0.32 0.0 0 0 1714.92 372.57
  L 1714.04 498.97
  A 0.32 0.32 0.0 0 0 1714.62 499.16
  L 1812.09 362.42"
/>
<path stroke="#f7f7f7" vector-effect="non-scaling-stroke" d="
  M 1915.62 415.40
  L 1818.47 362.49
  A 0.93 0.92 -57.8 0 0 1817.27 362.77
  L 1718.75 500.89
  A 0.33 0.33 0.0 0 0 1719.15 501.39
  Q 1817.25 458.76 1915.35 416.41
  Q 1915.75 416.24 1915.83 415.87
  Q 1915.90 415.56 1915.62 415.40"
/>
<path stroke="#f7f7f7" vector-effect="non-scaling-stroke" d="
  M 1650.22 380.13
  L 1708.94 496.65
  A 0.33 0.33 0.0 0 0 1709.57 496.51
  L 1710.80 373.55
  A 0.55 0.55 0.0 0 0 1710.27 373.00
  C 1705.36 372.87 1699.87 373.90 1695.99 374.31
  Q 1673.23 376.71 1650.80 379.08
  Q 1649.75 379.19 1650.22 380.13"
/>
</g>
<path fill="#ffffff" d="
  M 0.00 0.00
  L 1920.00 0.00
  L 1920.00 208.85
  L 1792.32 129.61
  A 3.00 2.99 51.6 0 0 1789.76 129.31
  Q 1780.36 132.52 1770.75 135.67
  Q 1769.99 135.92 1768.41 136.66
  C 1766.52 137.56 1763.58 138.04 1762.35 138.45
  Q 1737.05 146.95 1711.76 155.50
  Q 1708.99 156.44 1707.75 156.37
  Q 1691.08 155.48 1674.41 155.39
  Q 1669.41 155.37 1662.64 154.70
  Q 1656.76 154.11 1650.86 153.97
  Q 1638.52 153.68 1634.16 153.38
  Q 1622.21 152.57 1610.24 152.13
  Q 1609.71 152.11 1609.25 151.84
  Q 1607.32 150.71 1605.30 151.65
  Q 1604.84 151.86 1604.33 151.84
  Q 1555.52 149.47 1506.71 147.44
  C 1504.87 147.37 1502.87 146.77 1500.72 146.87
  C 1494.28 147.19 1487.79 146.49 1481.34 146.29
  C 1479.72 146.23 1477.75 145.04 1475.90 146.48
  A 1.07 1.04 -19.9 0 0 1475.50 147.30
  Q 1475.51 154.08 1474.05 160.69
  C 1473.63 162.63 1474.29 164.44 1474.08 166.50
  C 1473.29 174.01 1473.33 182.24 1470.79 189.38
  A 1.33 1.33 0.0 0 0 1470.81 190.35
  Q 1471.72 192.62 1471.51 194.99
  Q 1466.94 247.79 1462.28 300.59
  Q 1462.20 301.52 1461.70 303.61
  C 1461.11 306.07 1461.48 309.74 1461.35 311.30
  Q 1455.11 383.05 1448.71 455.94
  A 2.49 2.47 -64.4 0 0 1449.38 457.87
  Q 1500.12 511.20 1551.32 564.76
  C 1553.15 566.67 1555.05 566.83 1557.01 565.11
  Q 1557.39 564.77 1557.04 564.41
  L 1455.22 457.65
  A 0.54 0.54 0.0 0 1 1455.41 456.78
  L 1643.10 381.06
  Q 1644.12 380.66 1644.08 381.75
  L 1639.41 540.64
  Q 1639.36 542.35 1640.89 541.59
  L 1643.09 540.51
  Q 1643.59 540.26 1643.61 539.70
  L 1648.25 386.79
  A 0.21 0.21 0.0 0 1 1648.65 386.70
  L 1709.07 506.47
  A 1.07 1.07 0.0 0 1 1709.07 507.43
  L 1689.87 545.32
  A 0.81 0.81 0.0 0 0 1689.96 546.20
  Q 1691.13 547.65 1693.03 547.65
  Q 1693.63 547.65 1693.90 547.12
  L 1711.76 511.76
  A 0.50 0.50 0.0 0 1 1712.61 511.69
  Q 1736.10 543.26 1759.93 574.83
  Q 1761.72 577.19 1763.51 578.19
  Q 1765.73 579.41 1768.22 579.90
  A 0.44 0.44 0.0 0 0 1768.66 579.20
  L 1715.35 508.20
  A 0.29 0.29 0.0 0 1 1715.47 507.76
  L 1916.23 420.63
  A 0.46 0.46 0.0 0 1 1916.84 421.22
  L 1838.17 609.74
  Q 1837.95 610.27 1838.48 610.50
  L 1841.35 611.74
  Q 1841.98 612.02 1842.25 611.38
  L 1920.00 425.00
  L 1920.00 585.99
  L 1866.55 621.60
  A 0.69 0.68 -50.9 0 0 1866.67 622.81
  L 1869.97 624.12
  Q 1870.48 624.32 1870.92 624.01
  L 1920.00 590.84
  L 1920.00 1080.00
  L 0.00 1080.00
  L 0.00 0.00
  Z
  M 1099.54 233.68
  Q 1099.13 233.02 1098.79 232.90
  Q 1097.23 232.33 1097.55 234.03
  L 1111.21 306.80
  Q 1111.33 307.39 1110.73 307.36
  L 924.81 298.16
  Q 923.83 298.12 924.57 297.48
  L 1055.83 183.11
  A 0.62 0.61 -40.7 0 0 1055.90 182.25
  L 1054.35 180.39
  A 0.75 0.74 49.3 0 0 1053.29 180.31
  L 924.39 292.58
  Q 923.18 293.63 923.69 292.11
  L 962.69 173.73
  Q 962.88 173.18 963.46 173.10
  L 1038.37 163.26
  Q 1039.05 163.17 1038.88 162.50
  C 1038.28 160.22 1036.54 159.83 1034.30 160.12
  Q 998.61 164.85 963.07 169.40
  A 2.97 2.94 58.9 0 1 960.97 168.87
  L 873.70 105.77
  A 5.12 5.08 10.8 0 1 871.74 102.91
  L 861.54 63.75
  Q 861.02 61.73 858.98 62.17
  Q 786.49 77.83 715.75 93.23
  Q 713.01 93.83 710.24 93.40
  Q 684.18 89.36 657.55 85.22
  A 1.56 1.54 28.3 0 0 656.26 85.60
  L 548.36 180.82
  A 3.12 3.09 -16.9 0 0 547.34 182.71
  Q 531.10 299.47 514.59 415.97
  Q 514.29 418.11 515.27 419.44
  A 1.35 1.34 -27.9 0 0 516.80 419.91
  L 606.52 388.65
  Q 607.66 388.26 608.76 388.75
  L 692.96 426.42
  A 3.72 3.69 51.8 0 0 695.16 426.69
  L 809.08 406.42
  Q 809.66 406.32 809.97 406.82
  L 909.61 566.90
  A 2.67 2.66 -12.0 0 0 911.51 568.13
  L 982.27 577.84
  A 6.10 6.03 62.9 0 1 984.42 578.55
  L 1156.05 673.13
  A 1.79 1.77 29.9 0 0 1158.43 672.50
  L 1295.14 447.42
  A 1.75 1.72 52.3 0 0 1295.31 445.99
  Q 1276.51 385.77 1257.81 325.88
  C 1257.10 323.60 1255.94 322.52 1253.54 322.71
  Q 1252.96 322.76 1253.14 323.31
  L 1290.72 443.80
  A 0.51 0.50 83.4 0 1 1290.20 444.46
  L 1118.30 431.47
  Q 1117.45 431.41 1117.85 430.66
  L 1181.65 310.82
  Q 1182.10 309.97 1181.19 309.67
  Q 1178.47 308.76 1177.02 311.49
  Q 1146.90 368.09 1117.17 423.96
  Q 1116.34 425.51 1116.33 423.75
  L 1115.40 310.66
  Q 1115.40 310.27 1115.72 310.03
  L 1144.19 288.68
  A 1.99 1.99 0.0 0 0 1144.28 285.57
  Q 1143.07 284.56 1142.22 285.20
  Q 1128.86 295.36 1115.61 305.44
  A 0.57 0.57 0.0 0 1 1114.70 305.09
  Q 1108.25 270.62 1101.74 236.00
  Q 1101.53 234.88 1100.18 234.25
  A 1.56 1.52 85.9 0 1 1099.54 233.68
  Z
  M 1087.38 159.45
  Q 1087.24 158.70 1087.92 159.04
  Q 1133.58 182.16 1179.29 205.15
  Q 1182.00 206.51 1181.55 202.90
  A 1.62 1.60 -80.7 0 0 1180.67 201.66
  L 1085.58 153.72
  Q 1085.10 153.48 1084.57 153.55
  L 1041.26 159.19
  A 0.46 0.46 0.0 0 0 1040.88 159.79
  C 1041.63 162.14 1043.38 162.65 1045.80 162.33
  Q 1061.82 160.15 1077.61 158.13
  A 0.45 0.45 0.0 0 1 1077.96 158.91
  Q 1067.57 167.82 1057.46 176.97
  Q 1056.08 178.22 1057.43 179.64
  A 1.71 1.70 47.6 0 0 1059.79 179.75
  L 1083.19 159.18
  A 0.26 0.26 0.0 0 1 1083.62 159.33
  Q 1089.64 191.41 1095.54 223.52
  Q 1095.94 225.66 1098.47 227.83
  C 1099.23 228.47 1099.59 229.43 1100.06 230.27
  Q 1100.23 230.58 1100.57 230.46
  Q 1100.80 230.37 1100.74 230.02
  Q 1093.99 194.55 1087.38 159.45
  Z
  M 1184.63 204.63
  Q 1183.56 205.82 1184.06 207.11
  Q 1184.26 207.63 1184.76 207.88
  L 1220.38 225.84
  A 0.57 0.57 0.0 0 1 1220.46 226.81
  Q 1197.03 244.19 1173.69 261.89
  C 1171.91 263.24 1171.36 265.08 1171.68 267.14
  Q 1171.80 267.92 1172.43 267.45
  L 1218.02 233.24
  A 0.39 0.38 -4.1 0 1 1218.59 233.73
  L 1212.37 244.97
  A 0.41 0.40 84.8 0 0 1212.98 245.48
  Q 1219.68 239.99 1223.31 232.17
  Q 1223.57 231.62 1224.15 231.78
  Q 1226.44 232.38 1227.32 230.40
  C 1228.38 228.03 1226.30 224.63 1224.07 223.52
  Q 1204.64 213.81 1185.29 203.97
  Q 1184.86 203.75 1184.65 204.18
  Q 1184.55 204.38 1184.63 204.63
  Z
  M 1229.16 233.90
  A 0.63 0.63 0.0 0 0 1228.06 233.70
  L 1226.17 236.10
  A 0.63 0.63 0.0 0 0 1226.07 236.68
  L 1251.97 319.53
  A 0.63 0.63 0.0 0 0 1252.54 319.97
  L 1255.07 320.12
  A 0.63 0.63 0.0 0 0 1255.71 319.30
  L 1229.16 233.90
  Z
  M 1202.63 263.62
  Q 1191.52 284.01 1179.98 305.98
  Q 1179.38 307.11 1180.66 307.10
  L 1182.98 307.09
  Q 1183.64 307.09 1183.94 306.51
  L 1211.46 254.74
  A 0.70 0.69 -7.1 0 0 1210.38 253.90
  Q 1207.91 256.13 1206.03 258.40
  Q 1204.42 260.33 1202.63 263.62
  Z
  M 1641.20 606.08
  Q 1641.71 603.40 1641.84 599.75
  Q 1642.81 572.71 1643.43 545.64
  Q 1643.44 545.23 1643.03 545.16
  Q 1639.19 544.41 1639.08 547.86
  Q 1637.87 583.30 1636.96 618.40
  A 0.42 0.42 0.0 0 0 1637.79 618.53
  C 1639.01 614.32 1640.60 609.17 1641.20 606.08
  Z
  M 1675.67 573.24
  C 1674.68 575.19 1675.73 578.56 1676.19 580.44
  A 0.42 0.42 0.0 0 0 1676.98 580.53
  L 1691.45 551.97
  Q 1691.67 551.53 1691.34 551.18
  Q 1690.03 549.78 1688.18 549.92
  Q 1687.59 549.97 1687.32 550.50
  Q 1681.46 561.89 1675.67 573.24
  Z
  M 1559.45 568.88
  Q 1558.13 569.08 1556.93 569.58
  A 0.56 0.56 0.0 0 0 1556.74 570.48
  L 1628.98 646.23
  A 0.84 0.84 0.0 0 0 1630.41 645.85
  L 1631.15 642.94
  Q 1631.29 642.37 1630.89 641.94
  Q 1579.30 587.51 1561.16 568.84
  Q 1560.69 568.35 1559.97 568.71
  Q 1559.72 568.84 1559.45 568.88
  Z
  M 1635.51 646.49
  Q 1632.76 647.07 1633.00 649.77
  Q 1633.05 650.29 1633.40 650.68
  L 1636.72 654.30
  A 1.36 1.35 -21.3 0 0 1637.71 654.73
  L 1690.25 655.10
  A 1.30 1.29 86.3 0 0 1691.54 653.63
  Q 1691.36 652.30 1690.66 651.49
  Q 1690.03 650.76 1688.61 650.75
  Q 1665.42 650.70 1642.28 650.43
  A 0.42 0.42 0.0 0 1 1641.91 649.82
  L 1673.73 586.96
  Q 1673.97 586.48 1673.85 585.95
  L 1672.75 581.30
  A 0.55 0.54 51.9 0 0 1671.73 581.17
  L 1641.05 641.89
  A 0.28 0.27 59.7 0 1 1640.53 641.75
  L 1641.18 625.07
  A 0.39 0.39 0.0 0 0 1640.42 624.92
  Q 1638.21 630.92 1636.52 636.59
  C 1635.60 639.67 1636.46 642.62 1636.04 645.91
  Q 1635.98 646.39 1635.51 646.49
  Z
  M 1827.33 647.05
  L 1840.08 616.54
  A 0.98 0.98 0.0 0 0 1839.91 615.51
  Q 1838.68 614.09 1836.76 614.39
  Q 1836.19 614.48 1835.97 615.01
  L 1821.84 648.84
  A 0.50 0.50 0.0 0 1 1820.97 648.95
  Q 1798.28 618.61 1775.59 588.39
  Q 1772.95 584.87 1768.16 585.05
  Q 1767.52 585.07 1767.90 585.59
  L 1817.18 651.05
  A 0.57 0.57 0.0 0 1 1816.72 651.97
  L 1695.64 650.90
  Q 1694.53 650.89 1694.30 651.98
  Q 1693.96 653.63 1695.48 654.69
  Q 1696.47 655.38 1698.17 655.36
  Q 1758.47 654.73 1818.75 656.29
  C 1820.66 656.34 1822.72 656.08 1824.52 654.90
  Q 1844.45 641.77 1864.77 628.09
  A 1.33 1.32 48.7 0 0 1864.90 625.99
  C 1863.50 624.77 1861.80 624.89 1860.21 625.94
  Q 1844.04 636.59 1827.96 647.56
  A 0.42 0.42 0.0 0 1 1827.33 647.05
  Z"
/>
<path fill="#eeeeef" d="
  M 1100.18 234.25
  Q 1101.53 234.88 1101.74 236.00
  Q 1108.25 270.62 1114.70 305.09
  A 0.57 0.57 0.0 0 0 1115.61 305.44
  Q 1128.86 295.36 1142.22 285.20
  Q 1143.07 284.56 1144.28 285.57
  A 1.99 1.99 0.0 0 1 1144.19 288.68
  L 1115.72 310.03
  Q 1115.40 310.27 1115.40 310.66
  L 1116.33 423.75
  Q 1116.34 425.51 1117.17 423.96
  Q 1146.90 368.09 1177.02 311.49
  Q 1178.47 308.76 1181.19 309.67
  Q 1182.10 309.97 1181.65 310.82
  L 1117.85 430.66
  Q 1117.45 431.41 1118.30 431.47
  L 1290.20 444.46
  A 0.51 0.50 83.4 0 0 1290.72 443.80
  L 1253.14 323.31
  Q 1252.96 322.76 1253.54 322.71
  C 1255.94 322.52 1257.10 323.60 1257.81 325.88
  Q 1276.51 385.77 1295.31 445.99
  A 1.75 1.72 52.3 0 1 1295.14 447.42
  L 1158.43 672.50
  A 1.79 1.77 29.9 0 1 1156.05 673.13
  L 984.42 578.55
  A 6.10 6.03 62.9 0 0 982.27 577.84
  L 911.51 568.13
  A 2.67 2.66 -12.0 0 1 909.61 566.90
  L 809.97 406.82
  Q 809.66 406.32 809.08 406.42
  L 695.16 426.69
  A 3.72 3.69 51.8 0 1 692.96 426.42
  L 608.76 388.75
  Q 607.66 388.26 606.52 388.65
  L 516.80 419.91
  A 1.35 1.34 -27.9 0 1 515.27 419.44
  Q 514.29 418.11 514.59 415.97
  Q 531.10 299.47 547.34 182.71
  A 3.12 3.09 -16.9 0 1 548.36 180.82
  L 656.26 85.60
  A 1.56 1.54 28.3 0 1 657.55 85.22
  Q 684.18 89.36 710.24 93.40
  Q 713.01 93.83 715.75 93.23
  Q 786.49 77.83 858.98 62.17
  Q 861.02 61.73 861.54 63.75
  L 871.74 102.91
  A 5.12 5.08 10.8 0 0 873.70 105.77
  L 960.97 168.87
  A 2.97 2.94 58.9 0 0 963.07 169.40
  Q 998.61 164.85 1034.30 160.12
  C 1036.54 159.83 1038.28 160.22 1038.88 162.50
  Q 1039.05 163.17 1038.37 163.26
  L 963.46 173.10
  Q 962.88 173.18 962.69 173.73
  L 923.69 292.11
  Q 923.18 293.63 924.39 292.58
  L 1053.29 180.31
  A 0.75 0.74 49.3 0 1 1054.35 180.39
  L 1055.90 182.25
  A 0.62 0.61 -40.7 0 1 1055.83 183.11
  L 924.57 297.48
  Q 923.83 298.12 924.81 298.16
  L 1110.73 307.36
  Q 1111.33 307.39 1111.21 306.80
  L 1097.55 234.03
  Q 1097.23 232.33 1098.79 232.90
  Q 1099.13 233.02 1099.54 233.68
  A 1.56 1.52 85.9 0 0 1100.18 234.25
  Z
  M 776.14 224.52
  A 0.31 0.31 0.0 0 0 776.68 224.50
  L 855.19 68.58
  A 0.31 0.31 0.0 0 0 854.79 68.15
  L 717.83 127.83
  A 0.31 0.31 0.0 0 0 717.68 128.27
  L 776.14 224.52
  Z
  M 858.33 70.75
  L 779.65 227.01
  Q 779.38 227.55 779.97 227.67
  L 834.24 239.49
  Q 834.95 239.65 835.06 238.93
  Q 845.95 167.94 856.40 98.54
  Q 856.68 96.73 857.49 95.85
  A 1.74 1.74 0.0 0 1 859.82 95.64
  L 866.74 100.83
  Q 867.42 101.34 867.20 100.52
  L 859.48 70.87
  Q 859.07 69.29 858.33 70.75
  Z
  M 716.91 124.02
  L 839.40 70.72
  A 0.25 0.25 0.0 0 0 839.25 70.25
  L 715.52 97.13
  A 0.91 0.90 -8.2 0 0 714.81 98.07
  L 716.44 123.74
  Q 716.48 124.21 716.91 124.02
  Z
  M 666.54 90.42
  A 0.32 0.32 0.0 0 0 666.31 91.00
  L 712.11 122.96
  A 0.32 0.32 0.0 0 0 712.62 122.68
  L 711.01 97.62
  A 0.32 0.32 0.0 0 0 710.74 97.32
  L 666.54 90.42
  Z
  M 667.78 226.06
  L 712.06 128.42
  A 0.92 0.92 0.0 0 0 711.74 127.29
  L 660.11 91.26
  Q 659.51 90.85 659.56 91.57
  Q 661.08 115.39 661.71 139.26
  Q 661.98 149.51 662.74 159.22
  Q 665.35 192.65 666.75 225.86
  Q 666.84 228.13 667.78 226.06
  Z
  M 662.42 214.49
  Q 661.23 193.38 660.57 172.24
  Q 659.83 148.61 657.75 125.04
  C 656.81 114.53 656.56 102.98 655.85 91.90
  Q 655.80 91.10 655.20 91.63
  L 553.40 181.49
  Q 552.68 182.12 553.56 182.52
  L 662.99 232.58
  A 0.31 0.30 -79.0 0 0 663.42 232.28
  Q 662.92 223.37 662.42 214.49
  Z
  M 862.34 102.65
  L 899.95 228.98
  A 0.27 0.27 0.0 0 0 900.47 228.85
  Q 898.35 218.95 895.75 209.17
  Q 882.63 159.74 869.73 110.26
  C 869.15 108.03 868.91 106.72 866.90 105.32
  Q 864.81 103.87 862.81 102.32
  A 0.30 0.30 0.0 0 0 862.34 102.65
  Z
  M 903.62 253.69
  L 859.89 107.61
  Q 859.29 105.60 858.97 107.68
  L 838.79 238.75
  Q 838.73 239.17 838.46 239.50
  L 838.26 239.75
  Q 837.84 240.27 838.50 240.41
  L 902.85 254.52
  Q 903.93 254.75 903.62 253.69
  Z
  M 874.37 110.81
  A 0.31 0.31 0.0 0 0 873.89 111.14
  L 912.18 258.06
  A 0.31 0.31 0.0 0 1 912.14 258.30
  L 910.01 261.84
  A 0.31 0.31 0.0 0 0 909.98 262.09
  L 919.04 292.42
  A 0.31 0.31 0.0 0 0 919.63 292.43
  L 959.17 172.45
  A 0.31 0.31 0.0 0 0 959.06 172.10
  L 874.37 110.81
  Z
  M 713.38 134.66
  L 668.72 233.18
  Q 668.51 233.65 669.02 233.62
  L 730.48 229.91
  Q 731.08 229.87 730.98 229.27
  L 714.19 134.76
  Q 713.95 133.40 713.38 134.66
  Z
  M 772.89 226.39
  L 719.46 138.47
  Q 718.39 136.71 718.75 138.74
  L 734.72 228.60
  A 1.07 1.07 0.0 0 0 735.84 229.48
  L 772.46 227.23
  A 0.55 0.55 0.0 0 0 772.89 226.39
  Z
  M 661.37 236.56
  A 0.35 0.35 0.0 0 0 661.30 235.97
  L 554.63 187.16
  A 0.35 0.35 0.0 0 0 554.18 187.65
  L 605.26 280.23
  A 0.35 0.35 0.0 0 0 605.78 280.33
  L 661.37 236.56
  Z
  M 602.39 282.79
  L 550.83 189.38
  A 0.35 0.35 0.0 0 0 550.17 189.50
  L 519.73 408.21
  Q 519.49 409.98 520.47 408.49
  L 602.34 283.94
  A 1.12 1.12 0.0 0 0 602.39 282.79
  Z
  M 773.64 232.02
  Q 773.99 230.89 772.81 230.97
  L 736.00 233.31
  A 0.38 0.37 83.9 0 0 735.65 233.75
  L 749.24 310.03
  A 0.19 0.18 -41.5 0 0 749.60 310.05
  L 773.64 232.02
  Z
  M 779.05 231.32
  A 0.02 0.02 0.0 0 0 779.03 231.34
  L 811.42 392.61
  A 0.02 0.02 0.0 0 1 811.40 392.63
  L 811.37 392.62
  A 0.02 0.02 0.0 0 1 811.35 392.60
  L 834.34 243.43
  A 0.02 0.02 0.0 0 0 834.32 243.41
  L 779.05 231.32
  Z
  M 745.21 312.56
  A 0.32 0.32 0.0 0 0 745.75 312.27
  L 731.80 233.79
  A 0.32 0.32 0.0 0 0 731.46 233.53
  L 670.44 237.38
  A 0.32 0.32 0.0 0 0 670.23 237.92
  L 745.21 312.56
  Z
  M 775.93 237.32
  L 751.12 318.01
  A 1.05 1.05 0.0 0 0 751.28 318.95
  L 807.59 395.18
  A 0.24 0.23 -69.0 0 0 808.01 394.99
  L 776.38 237.34
  A 0.23 0.23 0.0 0 0 775.93 237.32
  Z
  M 609.75 282.72
  L 741.92 315.23
  A 0.21 0.21 0.0 0 0 742.11 314.88
  L 665.72 238.77
  A 0.67 0.67 0.0 0 0 664.83 238.71
  L 609.63 282.16
  A 0.32 0.32 0.0 0 0 609.75 282.72
  Z
  M 814.03 395.06
  Q 813.53 395.59 813.68 396.07
  A 0.59 0.59 0.0 0 0 814.74 396.23
  L 905.30 261.97
  A 2.19 2.19 0.0 0 0 903.96 258.61
  L 838.76 244.39
  Q 837.92 244.20 837.79 245.06
  Q 826.55 318.61 815.17 392.63
  C 815.04 393.46 814.66 394.39 814.03 395.06
  Z
  M 916.95 298.51
  Q 913.70 286.97 909.94 275.44
  Q 908.46 270.92 907.74 266.29
  A 0.37 0.37 0.0 0 0 907.06 266.14
  L 822.88 390.90
  A 0.22 0.21 -5.5 0 0 823.21 391.17
  L 916.69 299.45
  A 0.96 0.95 60.7 0 0 916.95 298.51
  Z
  M 693.76 420.66
  A 0.32 0.32 0.0 0 0 694.32 420.63
  L 745.90 320.50
  A 0.32 0.32 0.0 0 0 745.70 320.04
  L 609.79 286.63
  A 0.32 0.32 0.0 0 0 609.44 287.11
  L 693.76 420.66
  Z
  M 521.65 413.58
  A 0.33 0.33 0.0 0 0 522.04 414.07
  L 605.63 384.91
  A 0.33 0.33 0.0 0 0 605.85 384.59
  L 603.24 290.58
  A 0.33 0.33 0.0 0 0 602.63 290.41
  L 521.65 413.58
  Z
  M 606.99 291.50
  L 609.55 384.31
  A 1.02 1.02 0.0 0 0 610.16 385.21
  L 688.70 420.38
  A 0.21 0.20 85.4 0 0 688.95 420.08
  L 607.61 291.31
  Q 606.95 290.27 606.99 291.50
  Z
  M 1105.77 311.34
  A 0.38 0.38 0.0 0 0 1105.61 310.62
  L 923.60 301.44
  A 0.38 0.38 0.0 0 0 923.27 302.04
  L 977.76 379.61
  A 0.38 0.38 0.0 0 0 978.25 379.73
  L 1105.77 311.34
  Z
  M 817.26 402.73
  L 972.99 381.12
  Q 974.19 380.96 973.49 379.96
  L 919.13 302.67
  A 0.21 0.21 0.0 0 0 918.82 302.64
  L 817.07 402.35
  Q 816.59 402.82 817.26 402.73
  Z
  M 1108.72 314.69
  A 0.34 0.34 0.0 0 0 1108.26 314.24
  L 982.65 381.68
  A 0.34 0.34 0.0 0 0 982.69 382.30
  L 1059.96 410.79
  A 0.34 0.34 0.0 0 0 1060.38 410.62
  L 1108.72 314.69
  Z
  M 1063.90 411.89
  A 0.04 0.04 0.0 0 0 1063.91 411.94
  Q 1065.22 412.75 1066.75 413.31
  Q 1089.03 421.48 1111.55 429.85
  A 0.72 0.72 0.0 0 0 1112.41 429.55
  Q 1112.60 429.24 1112.60 428.75
  Q 1112.33 373.22 1111.70 317.72
  A 0.13 0.13 0.0 0 0 1111.45 317.66
  L 1063.90 411.89
  Z
  M 807.89 402.77
  A 0.31 0.31 0.0 0 0 808.09 402.29
  L 749.51 322.83
  A 0.31 0.31 0.0 0 0 748.98 322.87
  L 697.94 421.82
  A 0.31 0.31 0.0 0 0 698.27 422.27
  L 807.89 402.77
  Z
  M 974.43 385.10
  A 0.37 0.37 0.0 0 0 974.03 384.60
  L 814.92 406.79
  A 0.37 0.37 0.0 0 0 814.66 407.35
  L 910.55 561.34
  A 0.37 0.37 0.0 0 0 911.21 561.27
  L 974.43 385.10
  Z
  M 980.17 385.33
  A 0.32 0.32 0.0 0 0 979.74 385.68
  L 999.37 530.32
  A 0.32 0.32 0.0 0 0 999.97 530.42
  L 1058.40 414.55
  A 0.32 0.32 0.0 0 0 1058.22 414.11
  L 980.17 385.33
  Z
  M 996.15 536.36
  A 0.33 0.33 0.0 0 0 996.37 536.00
  L 976.78 391.46
  A 0.33 0.33 0.0 0 0 976.14 391.39
  L 914.69 562.66
  A 0.33 0.33 0.0 0 0 915.10 563.09
  L 996.15 536.36
  Z
  M 1061.70 416.31
  L 1005.22 528.36
  A 0.22 0.22 0.0 0 0 1005.56 528.62
  L 1110.53 433.98
  A 0.40 0.40 0.0 0 0 1110.40 433.31
  L 1062.87 415.84
  A 0.95 0.94 -66.6 0 0 1061.70 416.31
  Z
  M 1117.28 434.76
  A 0.43 0.43 0.0 0 0 1116.83 435.27
  L 1157.65 665.11
  A 0.43 0.43 0.0 0 0 1158.44 665.26
  L 1290.06 448.59
  A 0.43 0.43 0.0 0 0 1289.72 447.94
  L 1117.28 434.76
  Z
  M 1113.00 436.81
  L 1001.94 536.96
  Q 1001.31 537.52 1001.96 538.07
  L 1153.01 665.76
  Q 1154.12 666.70 1153.87 665.26
  Q 1134.63 556.76 1115.23 447.48
  C 1114.70 444.51 1113.72 440.74 1113.67 437.11
  A 0.40 0.40 0.0 0 0 1113.00 436.81
  Z
  M 995.18 541.11
  A 0.31 0.31 0.0 0 0 994.79 540.71
  L 920.76 565.09
  A 0.31 0.31 0.0 0 0 920.81 565.69
  L 982.73 574.12
  A 0.31 0.31 0.0 0 0 983.07 573.92
  L 995.18 541.11
  Z
  M 999.05 541.36
  L 986.73 574.75
  A 0.77 0.77 0.0 0 0 987.08 575.69
  L 1139.27 659.62
  A 0.23 0.23 0.0 0 0 1139.53 659.24
  L 999.78 541.16
  Q 999.28 540.74 999.05 541.36
  Z"
/>
<path fill="#ffffff" d="
  M 776.14 224.52
  L 717.68 128.27
  A 0.31 0.31 0.0 0 1 717.83 127.83
  L 854.79 68.15
  A 0.31 0.31 0.0 0 1 855.19 68.58
  L 776.68 224.50
  A 0.31 0.31 0.0 0 1 776.14 224.52
  Z"
/>
<path fill="#ffffff" d="
  M 779.65 227.01
  L 858.33 70.75
  Q 859.07 69.29 859.48 70.87
  L 867.20 100.52
  Q 867.42 101.34 866.74 100.83
  L 859.82 95.64
  A 1.74 1.74 0.0 0 0 857.49 95.85
  Q 856.68 96.73 856.40 98.54
  Q 845.95 167.94 835.06 238.93
  Q 834.95 239.65 834.24 239.49
  L 779.97 227.67
  Q 779.38 227.55 779.65 227.01
  Z"
/>
<path fill="#ffffff" d="
  M 839.40 70.72
  L 716.91 124.02
  Q 716.48 124.21 716.44 123.74
  L 714.81 98.07
  A 0.91 0.90 -8.2 0 1 715.52 97.13
  L 839.25 70.25
  A 0.25 0.25 0.0 0 1 839.40 70.72
  Z"
/>
<path fill="#ffffff" d="
  M 666.54 90.42
  L 710.74 97.32
  A 0.32 0.32 0.0 0 1 711.01 97.62
  L 712.62 122.68
  A 0.32 0.32 0.0 0 1 712.11 122.96
  L 666.31 91.00
  A 0.32 0.32 0.0 0 1 666.54 90.42
  Z"
/>
<path fill="#ffffff" d="
  M 712.06 128.42
  L 667.78 226.06
  Q 666.84 228.13 666.75 225.86
  Q 665.35 192.65 662.74 159.22
  Q 661.98 149.51 661.71 139.26
  Q 661.08 115.39 659.56 91.57
  Q 659.51 90.85 660.11 91.26
  L 711.74 127.29
  A 0.92 0.92 0.0 0 1 712.06 128.42
  Z"
/>
<path fill="#ffffff" d="
  M 662.42 214.49
  Q 662.92 223.37 663.42 232.28
  A 0.31 0.30 -79.0 0 1 662.99 232.58
  L 553.56 182.52
  Q 552.68 182.12 553.40 181.49
  L 655.20 91.63
  Q 655.80 91.10 655.85 91.90
  C 656.56 102.98 656.81 114.53 657.75 125.04
  Q 659.83 148.61 660.57 172.24
  Q 661.23 193.38 662.42 214.49
  Z"
/>
<path fill="#ffffff" d="
  M 899.95 228.98
  L 862.34 102.65
  A 0.30 0.30 0.0 0 1 862.81 102.32
  Q 864.81 103.87 866.90 105.32
  C 868.91 106.72 869.15 108.03 869.73 110.26
  Q 882.63 159.74 895.75 209.17
  Q 898.35 218.95 900.47 228.85
  A 0.27 0.27 0.0 0 1 899.95 228.98
  Z"
/>
<path fill="#ffffff" d="
  M 859.89 107.61
  L 903.62 253.69
  Q 903.93 254.75 902.85 254.52
  L 838.50 240.41
  Q 837.84 240.27 838.26 239.75
  L 838.46 239.50
  Q 838.73 239.17 838.79 238.75
  L 858.97 107.68
  Q 859.29 105.60 859.89 107.61
  Z"
/>
<path fill="#ffffff" d="
  M 874.37 110.81
  L 959.06 172.10
  A 0.31 0.31 0.0 0 1 959.17 172.45
  L 919.63 292.43
  A 0.31 0.31 0.0 0 1 919.04 292.42
  L 909.98 262.09
  A 0.31 0.31 0.0 0 1 910.01 261.84
  L 912.14 258.30
  A 0.31 0.31 0.0 0 0 912.18 258.06
  L 873.89 111.14
  A 0.31 0.31 0.0 0 1 874.37 110.81
  Z"
/>
<path fill="#eeeeef" d="
  M 1920.00 208.85
  L 1920.00 213.82
  L 1794.51 136.01
  Q 1793.57 135.42 1793.70 136.53
  L 1818.73 354.49
  A 0.54 0.54 0.0 0 0 1819.57 354.88
  L 1920.00 286.57
  L 1920.00 291.57
  L 1821.81 358.59
  A 0.44 0.43 42.0 0 0 1821.85 359.33
  L 1920.00 413.05
  L 1920.00 425.00
  L 1842.25 611.38
  Q 1841.98 612.02 1841.35 611.74
  L 1838.48 610.50
  Q 1837.95 610.27 1838.17 609.74
  L 1916.84 421.22
  A 0.46 0.46 0.0 0 0 1916.23 420.63
  L 1715.47 507.76
  A 0.29 0.29 0.0 0 0 1715.35 508.20
  L 1768.66 579.20
  A 0.44 0.44 0.0 0 1 1768.22 579.90
  Q 1765.73 579.41 1763.51 578.19
  Q 1761.72 577.19 1759.93 574.83
  Q 1736.10 543.26 1712.61 511.69
  A 0.50 0.50 0.0 0 0 1711.76 511.76
  L 1693.90 547.12
  Q 1693.63 547.65 1693.03 547.65
  Q 1691.13 547.65 1689.96 546.20
  A 0.81 0.81 0.0 0 1 1689.87 545.32
  L 1709.07 507.43
  A 1.07 1.07 0.0 0 0 1709.07 506.47
  L 1648.65 386.70
  A 0.21 0.21 0.0 0 0 1648.25 386.79
  L 1643.61 539.70
  Q 1643.59 540.26 1643.09 540.51
  L 1640.89 541.59
  Q 1639.36 542.35 1639.41 540.64
  L 1644.08 381.75
  Q 1644.12 380.66 1643.10 381.06
  L 1455.41 456.78
  A 0.54 0.54 0.0 0 0 1455.22 457.65
  L 1557.04 564.41
  Q 1557.39 564.77 1557.01 565.11
  C 1555.05 566.83 1553.15 566.67 1551.32 564.76
  Q 1500.12 511.20 1449.38 457.87
  A 2.49 2.47 -64.4 0 1 1448.71 455.94
  Q 1455.11 383.05 1461.35 311.30
  C 1461.48 309.74 1461.11 306.07 1461.70 303.61
  Q 1462.20 301.52 1462.28 300.59
  Q 1466.94 247.79 1471.51 194.99
  Q 1471.72 192.62 1470.81 190.35
  A 1.33 1.33 0.0 0 1 1470.79 189.38
  C 1473.33 182.24 1473.29 174.01 1474.08 166.50
  C 1474.29 164.44 1473.63 162.63 1474.05 160.69
  Q 1475.51 154.08 1475.50 147.30
  A 1.07 1.04 -19.9 0 1 1475.90 146.48
  C 1477.75 145.04 1479.72 146.23 1481.34 146.29
  C 1487.79 146.49 1494.28 147.19 1500.72 146.87
  C 1502.87 146.77 1504.87 147.37 1506.71 147.44
  Q 1555.52 149.47 1604.33 151.84
  Q 1604.84 151.86 1605.30 151.65
  Q 1607.32 150.71 1609.25 151.84
  Q 1609.71 152.11 1610.24 152.13
  Q 1622.21 152.57 1634.16 153.38
  Q 1638.52 153.68 1650.86 153.97
  Q 1656.76 154.11 1662.64 154.70
  Q 1669.41 155.37 1674.41 155.39
  Q 1691.08 155.48 1707.75 156.37
  Q 1708.99 156.44 1711.76 155.50
  Q 1737.05 146.95 1762.35 138.45
  C 1763.58 138.04 1766.52 137.56 1768.41 136.66
  Q 1769.99 135.92 1770.75 135.67
  Q 1780.36 132.52 1789.76 129.31
  A 3.00 2.99 51.6 0 1 1792.32 129.61
  L 1920.00 208.85
  Z
  M 1717.21 206.90
  A 0.32 0.32 0.0 0 0 1717.17 207.31
  L 1813.17 349.52
  A 0.32 0.32 0.0 0 0 1813.75 349.30
  L 1789.34 136.54
  A 0.32 0.32 0.0 0 0 1788.80 136.35
  L 1717.21 206.90
  Z
  M 1711.65 160.10
  A 0.31 0.31 0.0 0 0 1711.44 160.43
  L 1715.79 201.43
  A 0.31 0.31 0.0 0 0 1716.32 201.62
  L 1781.83 137.11
  A 0.31 0.31 0.0 0 0 1781.52 136.60
  L 1711.65 160.10
  Z
  M 1610.45 175.86
  Q 1608.32 166.50 1606.90 157.61
  A 1.66 1.66 0.0 0 0 1605.33 156.21
  L 1502.32 151.55
  A 0.31 0.31 0.0 0 0 1502.23 152.17
  L 1609.99 178.72
  Q 1612.27 179.29 1610.90 177.44
  Q 1610.77 177.27 1610.45 175.86
  Z
  M 1494.50 166.88
  C 1496.33 168.66 1496.87 170.65 1498.13 172.37
  Q 1549.40 241.89 1600.60 311.46
  C 1604.20 316.35 1609.56 324.76 1613.67 329.08
  Q 1615.84 331.37 1617.13 333.44
  Q 1619.87 337.88 1620.03 338.09
  Q 1632.98 355.14 1645.27 372.43
  A 0.45 0.45 0.0 0 0 1646.05 372.33
  L 1710.92 209.02
  Q 1711.23 208.24 1710.42 208.05
  Q 1664.33 196.79 1617.93 185.17
  C 1616.32 184.77 1614.44 185.04 1612.72 184.39
  Q 1609.20 183.07 1609.12 183.05
  Q 1555.10 169.78 1501.13 156.34
  Q 1501.03 156.31 1497.38 155.67
  Q 1495.47 155.33 1493.76 154.29
  A 1.22 1.17 -32.3 0 0 1492.97 154.13
  Q 1488.72 154.69 1485.01 152.60
  A 0.43 0.43 0.0 0 0 1484.38 153.07
  Q 1485.10 156.18 1487.78 157.90
  Q 1488.20 158.16 1488.42 158.60
  Q 1490.80 163.26 1494.50 166.88
  Z
  M 1478.02 178.11
  L 1487.33 165.95
  Q 1487.64 165.54 1487.44 165.07
  Q 1486.50 162.93 1484.43 161.88
  Q 1484.02 161.67 1483.86 161.24
  Q 1482.50 157.60 1479.68 154.80
  Q 1479.04 154.17 1479.07 155.07
  L 1479.28 162.05
  Q 1479.30 162.59 1479.02 163.05
  Q 1478.56 163.82 1478.53 164.25
  Q 1477.97 171.11 1477.32 177.84
  A 0.39 0.39 0.0 0 0 1478.02 178.11
  Z
  M 1610.13 158.02
  L 1614.60 179.40
  A 0.91 0.89 -89.6 0 0 1615.27 180.09
  L 1710.77 203.68
  Q 1711.70 203.91 1711.60 202.96
  L 1707.17 161.48
  Q 1707.10 160.86 1706.48 160.83
  Q 1688.39 159.73 1670.29 158.56
  C 1664.01 158.16 1656.82 158.36 1650.07 157.98
  Q 1638.70 157.33 1634.92 157.24
  Q 1622.76 156.92 1610.48 156.26
  A 0.91 0.90 -68.7 0 0 1609.74 156.59
  Q 1608.96 157.53 1609.69 157.62
  Q 1610.05 157.66 1610.13 158.02
  Z
  M 1486.88 171.88
  C 1485.32 174.42 1482.13 178.25 1479.06 181.17
  Q 1477.02 183.11 1476.73 186.25
  Q 1471.37 243.97 1466.36 301.72
  Q 1459.84 376.90 1453.50 451.93
  A 0.58 0.57 -8.6 0 0 1454.29 452.51
  L 1642.41 376.62
  A 0.54 0.54 0.0 0 0 1642.64 375.80
  Q 1627.63 355.61 1612.64 335.19
  C 1611.29 333.35 1609.24 331.88 1607.93 329.65
  Q 1605.33 325.25 1605.19 325.07
  Q 1552.28 253.34 1499.49 181.53
  Q 1498.46 180.13 1496.54 178.43
  C 1493.53 175.76 1492.89 171.83 1490.28 168.76
  A 0.59 0.59 0.0 0 0 1489.43 168.71
  Q 1488.06 169.95 1486.88 171.88
  Z
  M 1812.80 356.78
  L 1717.05 214.98
  Q 1716.28 213.84 1716.27 215.22
  L 1714.79 365.96
  A 1.74 1.73 87.2 0 0 1716.71 367.71
  L 1812.46 357.51
  Q 1813.24 357.43 1812.80 356.78
  Z
  M 1711.42 219.65
  L 1650.08 374.00
  A 0.57 0.51 6.6 0 0 1650.69 374.69
  L 1709.90 368.51
  A 1.15 1.15 0.0 0 0 1710.93 367.37
  L 1711.88 219.74
  A 0.24 0.24 0.0 0 0 1711.42 219.65
  Z
  M 1812.09 362.42
  A 0.32 0.32 0.0 0 0 1811.79 361.92
  L 1715.20 372.25
  A 0.32 0.32 0.0 0 0 1714.92 372.57
  L 1714.04 498.97
  A 0.32 0.32 0.0 0 0 1714.62 499.16
  L 1812.09 362.42
  Z
  M 1915.62 415.40
  L 1818.47 362.49
  A 0.93 0.92 -57.8 0 0 1817.27 362.77
  L 1718.75 500.89
  A 0.33 0.33 0.0 0 0 1719.15 501.39
  Q 1817.25 458.76 1915.35 416.41
  Q 1915.75 416.24 1915.83 415.87
  Q 1915.90 415.56 1915.62 415.40
  Z
  M 1650.22 380.13
  L 1708.94 496.65
  A 0.33 0.33 0.0 0 0 1709.57 496.51
  L 1710.80 373.55
  A 0.55 0.55 0.0 0 0 1710.27 373.00
  C 1705.36 372.87 1699.87 373.90 1695.99 374.31
  Q 1673.23 376.71 1650.80 379.08
  Q 1649.75 379.19 1650.22 380.13
  Z"
/>
<path fill="#ffffff" d="
  M 668.72 233.18
  L 713.38 134.66
  Q 713.95 133.40 714.19 134.76
  L 730.98 229.27
  Q 731.08 229.87 730.48 229.91
  L 669.02 233.62
  Q 668.51 233.65 668.72 233.18
  Z"
/>
<path fill="#ffffff" d="
  M 1920.00 213.82
  L 1920.00 286.57
  L 1819.57 354.88
  A 0.54 0.54 0.0 0 1 1818.73 354.49
  L 1793.70 136.53
  Q 1793.57 135.42 1794.51 136.01
  L 1920.00 213.82
  Z"
/>
<path fill="#ffffff" d="
  M 1717.21 206.90
  L 1788.80 136.35
  A 0.32 0.32 0.0 0 1 1789.34 136.54
  L 1813.75 349.30
  A 0.32 0.32 0.0 0 1 1813.17 349.52
  L 1717.17 207.31
  A 0.32 0.32 0.0 0 1 1717.21 206.90
  Z"
/>
<path fill="#ffffff" d="
  M 1711.65 160.10
  L 1781.52 136.60
  A 0.31 0.31 0.0 0 1 1781.83 137.11
  L 1716.32 201.62
  A 0.31 0.31 0.0 0 1 1715.79 201.43
  L 1711.44 160.43
  A 0.31 0.31 0.0 0 1 1711.65 160.10
  Z"
/>
<path fill="#ffffff" d="
  M 719.46 138.47
  L 772.89 226.39
  A 0.55 0.55 0.0 0 1 772.46 227.23
  L 735.84 229.48
  A 1.07 1.07 0.0 0 1 734.72 228.60
  L 718.75 138.74
  Q 718.39 136.71 719.46 138.47
  Z"
/>
<path fill="#ffffff" d="
  M 1610.45 175.86
  Q 1610.77 177.27 1610.90 177.44
  Q 1612.27 179.29 1609.99 178.72
  L 1502.23 152.17
  A 0.31 0.31 0.0 0 1 1502.32 151.55
  L 1605.33 156.21
  A 1.66 1.66 0.0 0 1 1606.90 157.61
  Q 1608.32 166.50 1610.45 175.86
  Z"
/>
<path fill="#ffffff" d="
  M 1494.50 166.88
  Q 1490.80 163.26 1488.42 158.60
  Q 1488.20 158.16 1487.78 157.90
  Q 1485.10 156.18 1484.38 153.07
  A 0.43 0.43 0.0 0 1 1485.01 152.60
  Q 1488.72 154.69 1492.97 154.13
  A 1.22 1.17 -32.3 0 1 1493.76 154.29
  Q 1495.47 155.33 1497.38 155.67
  Q 1501.03 156.31 1501.13 156.34
  Q 1555.10 169.78 1609.12 183.05
  Q 1609.20 183.07 1612.72 184.39
  C 1614.44 185.04 1616.32 184.77 1617.93 185.17
  Q 1664.33 196.79 1710.42 208.05
  Q 1711.23 208.24 1710.92 209.02
  L 1646.05 372.33
  A 0.45 0.45 0.0 0 1 1645.27 372.43
  Q 1632.98 355.14 1620.03 338.09
  Q 1619.87 337.88 1617.13 333.44
  Q 1615.84 331.37 1613.67 329.08
  C 1609.56 324.76 1604.20 316.35 1600.60 311.46
  Q 1549.40 241.89 1498.13 172.37
  C 1496.87 170.65 1496.33 168.66 1494.50 166.88
  Z"
/>
<path fill="#eeeeef" d="
  M 1087.38 159.45
  Q 1093.99 194.55 1100.74 230.02
  Q 1100.80 230.37 1100.57 230.46
  Q 1100.23 230.58 1100.06 230.27
  C 1099.59 229.43 1099.23 228.47 1098.47 227.83
  Q 1095.94 225.66 1095.54 223.52
  Q 1089.64 191.41 1083.62 159.33
  A 0.26 0.26 0.0 0 0 1083.19 159.18
  L 1059.79 179.75
  A 1.71 1.70 47.6 0 1 1057.43 179.64
  Q 1056.08 178.22 1057.46 176.97
  Q 1067.57 167.82 1077.96 158.91
  A 0.45 0.45 0.0 0 0 1077.61 158.13
  Q 1061.82 160.15 1045.80 162.33
  C 1043.38 162.65 1041.63 162.14 1040.88 159.79
  A 0.46 0.46 0.0 0 1 1041.26 159.19
  L 1084.57 153.55
  Q 1085.10 153.48 1085.58 153.72
  L 1180.67 201.66
  A 1.62 1.60 -80.7 0 1 1181.55 202.90
  Q 1182.00 206.51 1179.29 205.15
  Q 1133.58 182.16 1087.92 159.04
  Q 1087.24 158.70 1087.38 159.45
  Z"
/>
<path fill="#ffffff" d="
  M 1487.33 165.95
  L 1478.02 178.11
  A 0.39 0.39 0.0 0 1 1477.32 177.84
  Q 1477.97 171.11 1478.53 164.25
  Q 1478.56 163.82 1479.02 163.05
  Q 1479.30 162.59 1479.28 162.05
  L 1479.07 155.07
  Q 1479.04 154.17 1479.68 154.80
  Q 1482.50 157.60 1483.86 161.24
  Q 1484.02 161.67 1484.43 161.88
  Q 1486.50 162.93 1487.44 165.07
  Q 1487.64 165.54 1487.33 165.95
  Z"
/>
<path fill="#ffffff" d="
  M 1609.69 157.62
  Q 1608.96 157.53 1609.74 156.59
  A 0.91 0.90 -68.7 0 1 1610.48 156.26
  Q 1622.76 156.92 1634.92 157.24
  Q 1638.70 157.33 1650.07 157.98
  C 1656.82 158.36 1664.01 158.16 1670.29 158.56
  Q 1688.39 159.73 1706.48 160.83
  Q 1707.10 160.86 1707.17 161.48
  L 1711.60 202.96
  Q 1711.70 203.91 1710.77 203.68
  L 1615.27 180.09
  A 0.91 0.89 -89.6 0 1 1614.60 179.40
  L 1610.13 158.02
  Q 1610.05 157.66 1609.69 157.62
  Z"
/>
<path fill="#ffffff" d="
  M 1486.88 171.88
  Q 1488.06 169.95 1489.43 168.71
  A 0.59 0.59 0.0 0 1 1490.28 168.76
  C 1492.89 171.83 1493.53 175.76 1496.54 178.43
  Q 1498.46 180.13 1499.49 181.53
  Q 1552.28 253.34 1605.19 325.07
  Q 1605.33 325.25 1607.93 329.65
  C 1609.24 331.88 1611.29 333.35 1612.64 335.19
  Q 1627.63 355.61 1642.64 375.80
  A 0.54 0.54 0.0 0 1 1642.41 376.62
  L 1454.29 452.51
  A 0.58 0.57 -8.6 0 1 1453.50 451.93
  Q 1459.84 376.90 1466.36 301.72
  Q 1471.37 243.97 1476.73 186.25
  Q 1477.02 183.11 1479.06 181.17
  C 1482.13 178.25 1485.32 174.42 1486.88 171.88
  Z"
/>
<path fill="#ffffff" d="
  M 661.37 236.56
  L 605.78 280.33
  A 0.35 0.35 0.0 0 1 605.26 280.23
  L 554.18 187.65
  A 0.35 0.35 0.0 0 1 554.63 187.16
  L 661.30 235.97
  A 0.35 0.35 0.0 0 1 661.37 236.56
  Z"
/>
<path fill="#ffffff" d="
  M 550.83 189.38
  L 602.39 282.79
  A 1.12 1.12 0.0 0 1 602.34 283.94
  L 520.47 408.49
  Q 519.49 409.98 519.73 408.21
  L 550.17 189.50
  A 0.35 0.35 0.0 0 1 550.83 189.38
  Z"
/>
<path fill="#eeeeef" d="
  M 1184.63 204.63
  Q 1184.55 204.38 1184.65 204.18
  Q 1184.86 203.75 1185.29 203.97
  Q 1204.64 213.81 1224.07 223.52
  C 1226.30 224.63 1228.38 228.03 1227.32 230.40
  Q 1226.44 232.38 1224.15 231.78
  Q 1223.57 231.62 1223.31 232.17
  Q 1219.68 239.99 1212.98 245.48
  A 0.41 0.40 84.8 0 1 1212.37 244.97
  L 1218.59 233.73
  A 0.39 0.38 -4.1 0 0 1218.02 233.24
  L 1172.43 267.45
  Q 1171.80 267.92 1171.68 267.14
  C 1171.36 265.08 1171.91 263.24 1173.69 261.89
  Q 1197.03 244.19 1220.46 226.81
  A 0.57 0.57 0.0 0 0 1220.38 225.84
  L 1184.76 207.88
  Q 1184.26 207.63 1184.06 207.11
  Q 1183.56 205.82 1184.63 204.63
  Z"
/>
<path fill="#ffffff" d="
  M 1717.05 214.98
  L 1812.80 356.78
  Q 1813.24 357.43 1812.46 357.51
  L 1716.71 367.71
  A 1.74 1.73 87.2 0 1 1714.79 365.96
  L 1716.27 215.22
  Q 1716.28 213.84 1717.05 214.98
  Z"
/>
<path fill="#ffffff" d="
  M 1650.08 374.00
  L 1711.42 219.65
  A 0.24 0.24 0.0 0 1 1711.88 219.74
  L 1710.93 367.37
  A 1.15 1.15 0.0 0 1 1709.90 368.51
  L 1650.69 374.69
  A 0.57 0.51 6.6 0 1 1650.08 374.00
  Z"
/>
<path fill="#ffffff" d="
  M 773.64 232.02
  L 749.60 310.05
  A 0.19 0.18 -41.5 0 1 749.24 310.03
  L 735.65 233.75
  A 0.38 0.37 83.9 0 1 736.00 233.31
  L 772.81 230.97
  Q 773.99 230.89 773.64 232.02
  Z"
/>
<path fill="#ffffff" d="
  M 779.05 231.32
  L 834.32 243.41
  A 0.02 0.02 0.0 0 1 834.34 243.43
  L 811.35 392.60
  A 0.02 0.02 0.0 0 0 811.37 392.62
  L 811.40 392.63
  A 0.02 0.02 0.0 0 0 811.42 392.61
  L 779.03 231.34
  A 0.02 0.02 0.0 0 1 779.05 231.32
  Z"
/>
<path fill="#ffffff" d="
  M 745.21 312.56
  L 670.23 237.92
  A 0.32 0.32 0.0 0 1 670.44 237.38
  L 731.46 233.53
  A 0.32 0.32 0.0 0 1 731.80 233.79
  L 745.75 312.27
  A 0.32 0.32 0.0 0 1 745.21 312.56
  Z"
/>
<path fill="#eeeeef" d="
  M 1229.16 233.90
  L 1255.71 319.30
  A 0.63 0.63 0.0 0 1 1255.07 320.12
  L 1252.54 319.97
  A 0.63 0.63 0.0 0 1 1251.97 319.53
  L 1226.07 236.68
  A 0.63 0.63 0.0 0 1 1226.17 236.10
  L 1228.06 233.70
  A 0.63 0.63 0.0 0 1 1229.16 233.90
  Z"
/>
<path fill="#ffffff" d="
  M 751.12 318.01
  L 775.93 237.32
  A 0.23 0.23 0.0 0 1 776.38 237.34
  L 808.01 394.99
  A 0.24 0.23 -69.0 0 1 807.59 395.18
  L 751.28 318.95
  A 1.05 1.05 0.0 0 1 751.12 318.01
  Z"
/>
<path fill="#ffffff" d="
  M 741.92 315.23
  L 609.75 282.72
  A 0.32 0.32 0.0 0 1 609.63 282.16
  L 664.83 238.71
  A 0.67 0.67 0.0 0 1 665.72 238.77
  L 742.11 314.88
  A 0.21 0.21 0.0 0 1 741.92 315.23
  Z"
/>
<path fill="#ffffff" d="
  M 814.03 395.06
  C 814.66 394.39 815.04 393.46 815.17 392.63
  Q 826.55 318.61 837.79 245.06
  Q 837.92 244.20 838.76 244.39
  L 903.96 258.61
  A 2.19 2.19 0.0 0 1 905.30 261.97
  L 814.74 396.23
  A 0.59 0.59 0.0 0 1 813.68 396.07
  Q 813.53 395.59 814.03 395.06
  Z"
/>
<path fill="#eeeeef" d="
  M 1206.03 258.40
  Q 1207.91 256.13 1210.38 253.90
  A 0.70 0.69 -7.1 0 1 1211.46 254.74
  L 1183.94 306.51
  Q 1183.64 307.09 1182.98 307.09
  L 1180.66 307.10
  Q 1179.38 307.11 1179.98 305.98
  Q 1191.52 284.01 1202.63 263.62
  Q 1204.42 260.33 1206.03 258.40
  Z"
/>
<path fill="#ffffff" d="
  M 916.95 298.51
  A 0.96 0.95 60.7 0 1 916.69 299.45
  L 823.21 391.17
  A 0.22 0.21 -5.5 0 1 822.88 390.90
  L 907.06 266.14
  A 0.37 0.37 0.0 0 1 907.74 266.29
  Q 908.46 270.92 909.94 275.44
  Q 913.70 286.97 916.95 298.51
  Z"
/>
<path fill="#ffffff" d="
  M 693.76 420.66
  L 609.44 287.11
  A 0.32 0.32 0.0 0 1 609.79 286.63
  L 745.70 320.04
  A 0.32 0.32 0.0 0 1 745.90 320.50
  L 694.32 420.63
  A 0.32 0.32 0.0 0 1 693.76 420.66
  Z"
/>
<path fill="#ffffff" d="
  M 521.65 413.58
  L 602.63 290.41
  A 0.33 0.33 0.0 0 1 603.24 290.58
  L 605.85 384.59
  A 0.33 0.33 0.0 0 1 605.63 384.91
  L 522.04 414.07
  A 0.33 0.33 0.0 0 1 521.65 413.58
  Z"
/>
<path fill="#ffffff" d="
  M 609.55 384.31
  L 606.99 291.50
  Q 606.95 290.27 607.61 291.31
  L 688.95 420.08
  A 0.21 0.20 85.4 0 1 688.70 420.38
  L 610.16 385.21
  A 1.02 1.02 0.0 0 1 609.55 384.31
  Z"
/>
<path fill="#ffffff" d="
  M 1920.00 291.57
  L 1920.00 413.05
  L 1821.85 359.33
  A 0.44 0.43 42.0 0 1 1821.81 358.59
  L 1920.00 291.57
  Z"
/>
<path fill="#ffffff" d="
  M 1105.77 311.34
  L 978.25 379.73
  A 0.38 0.38 0.0 0 1 977.76 379.61
  L 923.27 302.04
  A 0.38 0.38 0.0 0 1 923.60 301.44
  L 1105.61 310.62
  A 0.38 0.38 0.0 0 1 1105.77 311.34
  Z"
/>
<path fill="#ffffff" d="
  M 817.26 402.73
  Q 816.59 402.82 817.07 402.35
  L 918.82 302.64
  A 0.21 0.21 0.0 0 1 919.13 302.67
  L 973.49 379.96
  Q 974.19 380.96 972.99 381.12
  L 817.26 402.73
  Z"
/>
<path fill="#ffffff" d="
  M 1108.72 314.69
  L 1060.38 410.62
  A 0.34 0.34 0.0 0 1 1059.96 410.79
  L 982.69 382.30
  A 0.34 0.34 0.0 0 1 982.65 381.68
  L 1108.26 314.24
  A 0.34 0.34 0.0 0 1 1108.72 314.69
  Z"
/>
<path fill="#ffffff" d="
  M 1063.90 411.89
  L 1111.45 317.66
  A 0.13 0.13 0.0 0 1 1111.70 317.72
  Q 1112.33 373.22 1112.60 428.75
  Q 1112.60 429.24 1112.41 429.55
  A 0.72 0.72 0.0 0 1 1111.55 429.85
  Q 1089.03 421.48 1066.75 413.31
  Q 1065.22 412.75 1063.91 411.94
  A 0.04 0.04 0.0 0 1 1063.90 411.89
  Z"
/>
<path fill="#ffffff" d="
  M 807.89 402.77
  L 698.27 422.27
  A 0.31 0.31 0.0 0 1 697.94 421.82
  L 748.98 322.87
  A 0.31 0.31 0.0 0 1 749.51 322.83
  L 808.09 402.29
  A 0.31 0.31 0.0 0 1 807.89 402.77
  Z"
/>
<path fill="#ffffff" d="
  M 1812.09 362.42
  L 1714.62 499.16
  A 0.32 0.32 0.0 0 1 1714.04 498.97
  L 1714.92 372.57
  A 0.32 0.32 0.0 0 1 1715.20 372.25
  L 1811.79 361.92
  A 0.32 0.32 0.0 0 1 1812.09 362.42
  Z"
/>
<path fill="#ffffff" d="
  M 1818.47 362.49
  L 1915.62 415.40
  Q 1915.90 415.56 1915.83 415.87
  Q 1915.75 416.24 1915.35 416.41
  Q 1817.25 458.76 1719.15 501.39
  A 0.33 0.33 0.0 0 1 1718.75 500.89
  L 1817.27 362.77
  A 0.93 0.92 -57.8 0 1 1818.47 362.49
  Z"
/>
<path fill="#ffffff" d="
  M 1708.94 496.65
  L 1650.22 380.13
  Q 1649.75 379.19 1650.80 379.08
  Q 1673.23 376.71 1695.99 374.31
  C 1699.87 373.90 1705.36 372.87 1710.27 373.00
  A 0.55 0.55 0.0 0 1 1710.80 373.55
  L 1709.57 496.51
  A 0.33 0.33 0.0 0 1 1708.94 496.65
  Z"
/>
<path fill="#ffffff" d="
  M 974.43 385.10
  L 911.21 561.27
  A 0.37 0.37 0.0 0 1 910.55 561.34
  L 814.66 407.35
  A 0.37 0.37 0.0 0 1 814.92 406.79
  L 974.03 384.60
  A 0.37 0.37 0.0 0 1 974.43 385.10
  Z"
/>
<path fill="#ffffff" d="
  M 980.17 385.33
  L 1058.22 414.11
  A 0.32 0.32 0.0 0 1 1058.40 414.55
  L 999.97 530.42
  A 0.32 0.32 0.0 0 1 999.37 530.32
  L 979.74 385.68
  A 0.32 0.32 0.0 0 1 980.17 385.33
  Z"
/>
<path fill="#ffffff" d="
  M 996.15 536.36
  L 915.10 563.09
  A 0.33 0.33 0.0 0 1 914.69 562.66
  L 976.14 391.39
  A 0.33 0.33 0.0 0 1 976.78 391.46
  L 996.37 536.00
  A 0.33 0.33 0.0 0 1 996.15 536.36
  Z"
/>
<path fill="#ffffff" d="
  M 1005.22 528.36
  L 1061.70 416.31
  A 0.95 0.94 -66.6 0 1 1062.87 415.84
  L 1110.40 433.31
  A 0.40 0.40 0.0 0 1 1110.53 433.98
  L 1005.56 528.62
  A 0.22 0.22 0.0 0 1 1005.22 528.36
  Z"
/>
<path fill="#ffffff" d="
  M 1117.28 434.76
  L 1289.72 447.94
  A 0.43 0.43 0.0 0 1 1290.06 448.59
  L 1158.44 665.26
  A 0.43 0.43 0.0 0 1 1157.65 665.11
  L 1116.83 435.27
  A 0.43 0.43 0.0 0 1 1117.28 434.76
  Z"
/>
<path fill="#ffffff" d="
  M 1001.94 536.96
  L 1113.00 436.81
  A 0.40 0.40 0.0 0 1 1113.67 437.11
  C 1113.72 440.74 1114.70 444.51 1115.23 447.48
  Q 1134.63 556.76 1153.87 665.26
  Q 1154.12 666.70 1153.01 665.76
  L 1001.96 538.07
  Q 1001.31 537.52 1001.94 536.96
  Z"
/>
<path fill="#ffffff" d="
  M 995.18 541.11
  L 983.07 573.92
  A 0.31 0.31 0.0 0 1 982.73 574.12
  L 920.81 565.69
  A 0.31 0.31 0.0 0 1 920.76 565.09
  L 994.79 540.71
  A 0.31 0.31 0.0 0 1 995.18 541.11
  Z"
/>
<path fill="#ffffff" d="
  M 999.05 541.36
  Q 999.28 540.74 999.78 541.16
  L 1139.53 659.24
  A 0.23 0.23 0.0 0 1 1139.27 659.62
  L 987.08 575.69
  A 0.77 0.77 0.0 0 1 986.73 574.75
  L 999.05 541.36
  Z"
/>
<path fill="#eeeeef" d="
  M 1641.20 606.08
  C 1640.60 609.17 1639.01 614.32 1637.79 618.53
  A 0.42 0.42 0.0 0 1 1636.96 618.40
  Q 1637.87 583.30 1639.08 547.86
  Q 1639.19 544.41 1643.03 545.16
  Q 1643.44 545.23 1643.43 545.64
  Q 1642.81 572.71 1641.84 599.75
  Q 1641.71 603.40 1641.20 606.08
  Z"
/>
<path fill="#eeeeef" d="
  M 1676.19 580.44
  C 1675.73 578.56 1674.68 575.19 1675.67 573.24
  Q 1681.46 561.89 1687.32 550.50
  Q 1687.59 549.97 1688.18 549.92
  Q 1690.03 549.78 1691.34 551.18
  Q 1691.67 551.53 1691.45 551.97
  L 1676.98 580.53
  A 0.42 0.42 0.0 0 1 1676.19 580.44
  Z"
/>
<path fill="#eeeeef" d="
  M 1559.97 568.71
  Q 1560.69 568.35 1561.16 568.84
  Q 1579.30 587.51 1630.89 641.94
  Q 1631.29 642.37 1631.15 642.94
  L 1630.41 645.85
  A 0.84 0.84 0.0 0 1 1628.98 646.23
  L 1556.74 570.48
  A 0.56 0.56 0.0 0 1 1556.93 569.58
  Q 1558.13 569.08 1559.45 568.88
  Q 1559.72 568.84 1559.97 568.71
  Z"
/>
<path fill="#eeeeef" d="
  M 1636.04 645.91
  C 1636.46 642.62 1635.60 639.67 1636.52 636.59
  Q 1638.21 630.92 1640.42 624.92
  A 0.39 0.39 0.0 0 1 1641.18 625.07
  L 1640.53 641.75
  A 0.28 0.27 59.7 0 0 1641.05 641.89
  L 1671.73 581.17
  A 0.55 0.54 51.9 0 1 1672.75 581.30
  L 1673.85 585.95
  Q 1673.97 586.48 1673.73 586.96
  L 1641.91 649.82
  A 0.42 0.42 0.0 0 0 1642.28 650.43
  Q 1665.42 650.70 1688.61 650.75
  Q 1690.03 650.76 1690.66 651.49
  Q 1691.36 652.30 1691.54 653.63
  A 1.30 1.29 86.3 0 1 1690.25 655.10
  L 1637.71 654.73
  A 1.36 1.35 -21.3 0 1 1636.72 654.30
  L 1633.40 650.68
  Q 1633.05 650.29 1633.00 649.77
  Q 1632.76 647.07 1635.51 646.49
  Q 1635.98 646.39 1636.04 645.91
  Z"
/>
<path fill="#eeeeef" d="
  M 1827.33 647.05
  A 0.42 0.42 0.0 0 0 1827.96 647.56
  Q 1844.04 636.59 1860.21 625.94
  C 1861.80 624.89 1863.50 624.77 1864.90 625.99
  A 1.33 1.32 48.7 0 1 1864.77 628.09
  Q 1844.45 641.77 1824.52 654.90
  C 1822.72 656.08 1820.66 656.34 1818.75 656.29
  Q 1758.47 654.73 1698.17 655.36
  Q 1696.47 655.38 1695.48 654.69
  Q 1693.96 653.63 1694.30 651.98
  Q 1694.53 650.89 1695.64 650.90
  L 1816.72 651.97
  A 0.57 0.57 0.0 0 0 1817.18 651.05
  L 1767.90 585.59
  Q 1767.52 585.07 1768.16 585.05
  Q 1772.95 584.87 1775.59 588.39
  Q 1798.28 618.61 1820.97 648.95
  A 0.50 0.50 0.0 0 0 1821.84 648.84
  L 1835.97 615.01
  Q 1836.19 614.48 1836.76 614.39
  Q 1838.68 614.09 1839.91 615.51
  A 0.98 0.98 0.0 0 1 1840.08 616.54
  L 1827.33 647.05
  Z"
/>
<path fill="#eeeeef" d="
  M 1920.00 585.99
  L 1920.00 590.84
  L 1870.92 624.01
  Q 1870.48 624.32 1869.97 624.12
  L 1866.67 622.81
  A 0.69 0.68 -50.9 0 1 1866.55 621.60
  L 1920.00 585.99
  Z"
/>
</svg>
