<svg xmlns="http://www.w3.org/2000/svg" xmlns:xlink="http://www.w3.org/1999/xlink" width="500" zoomAndPan="magnify" viewBox="0 0 375 374.999991" height="500" preserveAspectRatio="xMidYMid meet" version="1.0"><defs><g/><clipPath id="08e295e560"><path d="M 126.597656 78.4375 L 256 78.4375 L 256 228.4375 L 126.597656 228.4375 Z M 126.597656 78.4375 " clip-rule="nonzero"/></clipPath></defs><rect x="-37.5" width="450" fill="#ffffff" y="-37.499999" height="449.999989" fill-opacity="1"/><rect x="-37.5" width="450" fill="#000000" y="-37.499999" height="449.999989" fill-opacity="1"/><g clip-path="url(#08e295e560)"><path fill="#ff0066" d="M 191.445312 133.769531 L 191.199219 116.417969 L 178.746094 116.417969 C 178.746094 116.417969 127.203125 149.035156 127.21875 148.484375 L 126.722656 228.417969 L 213 228.207031 C 252.835938 228.101562 262.347656 185.808594 248.25 165.324219 L 229.863281 176.769531 C 238.542969 188.585938 232.980469 205.882812 212.523438 205.882812 L 149.308594 205.832031 L 149.804688 161.113281 Z M 231.441406 125.597656 C 229.863281 130.726562 224.851562 135.273438 219.058594 139.289062 C 213.125 143.390625 206.394531 146.945312 201.738281 149.972656 L 169.480469 170.613281 L 169.746094 196.472656 L 195.714844 180.359375 C 227.3125 159.433594 256.664062 150.234375 255.035156 115.761719 C 254.46875 103.539062 248.816406 92.078125 242.476562 86.363281 C 234.417969 79.078125 226.800781 78.457031 216.667969 78.457031 L 126.597656 78.457031 L 126.636719 126.78125 L 149.234375 114.207031 L 149.539062 100.550781 L 217.945312 100.550781 C 231.757812 100.550781 234.769531 114.664062 231.441406 125.597656 Z M 231.441406 125.597656 " fill-opacity="1" fill-rule="evenodd"/></g><g fill="#ffffff" fill-opacity="1"><g transform="translate(85.849151, 261.437839)"><g><path d="M 20.6875 -12.609375 C 22.070312 -12.171875 23.15625 -11.4375 23.9375 -10.40625 C 24.71875 -9.382812 25.109375 -8.117188 25.109375 -6.609375 C 25.109375 -4.484375 24.28125 -2.847656 22.625 -1.703125 C 20.976562 -0.566406 18.578125 0 15.421875 0 L 2.875 0 L 2.875 -24.25 L 14.71875 -24.25 C 17.675781 -24.25 19.945312 -23.679688 21.53125 -22.546875 C 23.113281 -21.421875 23.90625 -19.882812 23.90625 -17.9375 C 23.90625 -16.757812 23.617188 -15.707031 23.046875 -14.78125 C 22.484375 -13.863281 21.695312 -13.140625 20.6875 -12.609375 Z M 8.453125 -20.015625 L 8.453125 -14.3125 L 14.03125 -14.3125 C 15.414062 -14.3125 16.460938 -14.550781 17.171875 -15.03125 C 17.890625 -15.519531 18.25 -16.238281 18.25 -17.1875 C 18.25 -18.132812 17.890625 -18.84375 17.171875 -19.3125 C 16.460938 -19.78125 15.414062 -20.015625 14.03125 -20.015625 Z M 15 -4.21875 C 16.476562 -4.21875 17.59375 -4.460938 18.34375 -4.953125 C 19.09375 -5.441406 19.46875 -6.191406 19.46875 -7.203125 C 19.46875 -9.210938 17.976562 -10.21875 15 -10.21875 L 8.453125 -10.21875 L 8.453125 -4.21875 Z M 15 -4.21875 "/></g></g></g><g fill="#ffffff" fill-opacity="1"><g transform="translate(117.823357, 261.437839)"><g><path d="M 20.75 -9.25 C 20.75 -9.175781 20.710938 -8.691406 20.640625 -7.796875 L 6.546875 -7.796875 C 6.796875 -6.640625 7.394531 -5.722656 8.34375 -5.046875 C 9.289062 -4.378906 10.46875 -4.046875 11.875 -4.046875 C 12.851562 -4.046875 13.71875 -4.191406 14.46875 -4.484375 C 15.21875 -4.773438 15.914062 -5.234375 16.5625 -5.859375 L 19.4375 -2.734375 C 17.675781 -0.722656 15.113281 0.28125 11.75 0.28125 C 9.644531 0.28125 7.78125 -0.128906 6.15625 -0.953125 C 4.539062 -1.773438 3.296875 -2.910156 2.421875 -4.359375 C 1.546875 -5.816406 1.109375 -7.46875 1.109375 -9.3125 C 1.109375 -11.144531 1.539062 -12.789062 2.40625 -14.25 C 3.269531 -15.71875 4.457031 -16.859375 5.96875 -17.671875 C 7.488281 -18.492188 9.179688 -18.90625 11.046875 -18.90625 C 12.867188 -18.90625 14.519531 -18.515625 16 -17.734375 C 17.476562 -16.953125 18.640625 -15.828125 19.484375 -14.359375 C 20.328125 -12.890625 20.75 -11.1875 20.75 -9.25 Z M 11.078125 -14.828125 C 9.859375 -14.828125 8.832031 -14.476562 8 -13.78125 C 7.164062 -13.09375 6.660156 -12.148438 6.484375 -10.953125 L 15.65625 -10.953125 C 15.46875 -12.128906 14.957031 -13.066406 14.125 -13.765625 C 13.300781 -14.472656 12.285156 -14.828125 11.078125 -14.828125 Z M 11.078125 -14.828125 "/></g></g></g><g fill="#ffffff" fill-opacity="1"><g transform="translate(145.155738, 261.437839)"><g><path d="M 14.515625 -0.90625 C 13.984375 -0.507812 13.328125 -0.210938 12.546875 -0.015625 C 11.773438 0.179688 10.960938 0.28125 10.109375 0.28125 C 7.898438 0.28125 6.1875 -0.285156 4.96875 -1.421875 C 3.757812 -2.554688 3.15625 -4.21875 3.15625 -6.40625 L 3.15625 -14.0625 L 0.28125 -14.0625 L 0.28125 -18.21875 L 3.15625 -18.21875 L 3.15625 -22.765625 L 8.5625 -22.765625 L 8.5625 -18.21875 L 13.203125 -18.21875 L 13.203125 -14.0625 L 8.5625 -14.0625 L 8.5625 -6.484375 C 8.5625 -5.691406 8.757812 -5.082031 9.15625 -4.65625 C 9.5625 -4.226562 10.132812 -4.015625 10.875 -4.015625 C 11.726562 -4.015625 12.457031 -4.25 13.0625 -4.71875 Z M 14.515625 -0.90625 "/></g></g></g><g fill="#ffffff" fill-opacity="1"><g transform="translate(165.698568, 261.437839)"><g><path d="M 10.015625 -18.90625 C 12.898438 -18.90625 15.113281 -18.21875 16.65625 -16.84375 C 18.207031 -15.476562 18.984375 -13.410156 18.984375 -10.640625 L 18.984375 0 L 13.921875 0 L 13.921875 -2.328125 C 12.910156 -0.585938 11.019531 0.28125 8.25 0.28125 C 6.8125 0.28125 5.566406 0.0390625 4.515625 -0.4375 C 3.460938 -0.925781 2.660156 -1.597656 2.109375 -2.453125 C 1.554688 -3.304688 1.28125 -4.28125 1.28125 -5.375 C 1.28125 -7.101562 1.929688 -8.460938 3.234375 -9.453125 C 4.546875 -10.453125 6.5625 -10.953125 9.28125 -10.953125 L 13.578125 -10.953125 C 13.578125 -12.128906 13.21875 -13.035156 12.5 -13.671875 C 11.789062 -14.304688 10.71875 -14.625 9.28125 -14.625 C 8.289062 -14.625 7.316406 -14.46875 6.359375 -14.15625 C 5.398438 -13.84375 4.585938 -13.421875 3.921875 -12.890625 L 1.96875 -16.65625 C 2.988281 -17.375 4.207031 -17.925781 5.625 -18.3125 C 7.050781 -18.707031 8.515625 -18.90625 10.015625 -18.90625 Z M 9.59375 -3.359375 C 10.519531 -3.359375 11.335938 -3.570312 12.046875 -4 C 12.765625 -4.425781 13.273438 -5.054688 13.578125 -5.890625 L 13.578125 -7.796875 L 9.875 -7.796875 C 7.65625 -7.796875 6.546875 -7.066406 6.546875 -5.609375 C 6.546875 -4.921875 6.816406 -4.375 7.359375 -3.96875 C 7.898438 -3.5625 8.644531 -3.359375 9.59375 -3.359375 Z M 9.59375 -3.359375 "/></g></g></g><g fill="#ffffff" fill-opacity="1"><g transform="translate(192.54597, 261.437839)"><g><path d="M 14.484375 0.421875 C 12.003906 0.421875 9.765625 -0.113281 7.765625 -1.1875 C 5.773438 -2.269531 4.207031 -3.757812 3.0625 -5.65625 C 1.914062 -7.5625 1.34375 -9.71875 1.34375 -12.125 C 1.34375 -14.53125 1.914062 -16.679688 3.0625 -18.578125 C 4.207031 -20.484375 5.773438 -21.972656 7.765625 -23.046875 C 9.765625 -24.128906 12.015625 -24.671875 14.515625 -24.671875 C 16.617188 -24.671875 18.519531 -24.300781 20.21875 -23.5625 C 21.914062 -22.820312 23.335938 -21.757812 24.484375 -20.375 L 20.890625 -17.046875 C 19.242188 -18.941406 17.210938 -19.890625 14.796875 -19.890625 C 13.296875 -19.890625 11.953125 -19.554688 10.765625 -18.890625 C 9.585938 -18.234375 8.671875 -17.316406 8.015625 -16.140625 C 7.359375 -14.960938 7.03125 -13.625 7.03125 -12.125 C 7.03125 -10.625 7.359375 -9.285156 8.015625 -8.109375 C 8.671875 -6.929688 9.585938 -6.007812 10.765625 -5.34375 C 11.953125 -4.6875 13.296875 -4.359375 14.796875 -4.359375 C 17.210938 -4.359375 19.242188 -5.316406 20.890625 -7.234375 L 24.484375 -3.921875 C 23.335938 -2.503906 21.90625 -1.425781 20.1875 -0.6875 C 18.476562 0.0507812 16.578125 0.421875 14.484375 0.421875 Z M 14.484375 0.421875 "/></g></g></g><g fill="#ffffff" fill-opacity="1"><g transform="translate(223.41168, 261.437839)"><g><path d="M 11.359375 0.28125 C 9.398438 0.28125 7.640625 -0.128906 6.078125 -0.953125 C 4.515625 -1.773438 3.296875 -2.910156 2.421875 -4.359375 C 1.546875 -5.816406 1.109375 -7.46875 1.109375 -9.3125 C 1.109375 -11.164062 1.546875 -12.816406 2.421875 -14.265625 C 3.296875 -15.722656 4.515625 -16.859375 6.078125 -17.671875 C 7.640625 -18.492188 9.398438 -18.90625 11.359375 -18.90625 C 13.328125 -18.90625 15.082031 -18.492188 16.625 -17.671875 C 18.175781 -16.859375 19.390625 -15.722656 20.265625 -14.265625 C 21.140625 -12.816406 21.578125 -11.164062 21.578125 -9.3125 C 21.578125 -7.46875 21.140625 -5.816406 20.265625 -4.359375 C 19.390625 -2.910156 18.175781 -1.773438 16.625 -0.953125 C 15.082031 -0.128906 13.328125 0.28125 11.359375 0.28125 Z M 11.359375 -4.15625 C 12.742188 -4.15625 13.878906 -4.625 14.765625 -5.5625 C 15.660156 -6.5 16.109375 -7.75 16.109375 -9.3125 C 16.109375 -10.882812 15.660156 -12.140625 14.765625 -13.078125 C 13.878906 -14.015625 12.742188 -14.484375 11.359375 -14.484375 C 9.972656 -14.484375 8.828125 -14.015625 7.921875 -13.078125 C 7.023438 -12.140625 6.578125 -10.882812 6.578125 -9.3125 C 6.578125 -7.75 7.023438 -6.5 7.921875 -5.5625 C 8.828125 -4.625 9.972656 -4.15625 11.359375 -4.15625 Z M 11.359375 -4.15625 "/></g></g></g><g fill="#ffffff" fill-opacity="1"><g transform="translate(251.575427, 261.437839)"><g><path d="M 21.484375 -25.703125 L 21.484375 0 L 16.3125 0 L 16.3125 -2.140625 C 14.976562 -0.523438 13.039062 0.28125 10.5 0.28125 C 8.738281 0.28125 7.148438 -0.109375 5.734375 -0.890625 C 4.316406 -1.679688 3.203125 -2.800781 2.390625 -4.25 C 1.578125 -5.707031 1.171875 -7.394531 1.171875 -9.3125 C 1.171875 -11.226562 1.578125 -12.914062 2.390625 -14.375 C 3.203125 -15.832031 4.316406 -16.953125 5.734375 -17.734375 C 7.148438 -18.515625 8.738281 -18.90625 10.5 -18.90625 C 12.875 -18.90625 14.734375 -18.15625 16.078125 -16.65625 L 16.078125 -25.703125 Z M 11.4375 -4.15625 C 12.789062 -4.15625 13.914062 -4.625 14.8125 -5.5625 C 15.71875 -6.5 16.171875 -7.75 16.171875 -9.3125 C 16.171875 -10.882812 15.71875 -12.140625 14.8125 -13.078125 C 13.914062 -14.015625 12.789062 -14.484375 11.4375 -14.484375 C 10.050781 -14.484375 8.90625 -14.015625 8 -13.078125 C 7.101562 -12.140625 6.65625 -10.882812 6.65625 -9.3125 C 6.65625 -7.75 7.101562 -6.5 8 -5.5625 C 8.90625 -4.625 10.050781 -4.15625 11.4375 -4.15625 Z M 11.4375 -4.15625 "/></g></g></g><g fill="#ffffff" fill-opacity="1"><g transform="translate(281.02089, 261.437839)"><g><path d="M 20.75 -9.25 C 20.75 -9.175781 20.710938 -8.691406 20.640625 -7.796875 L 6.546875 -7.796875 C 6.796875 -6.640625 7.394531 -5.722656 8.34375 -5.046875 C 9.289062 -4.378906 10.46875 -4.046875 11.875 -4.046875 C 12.851562 -4.046875 13.71875 -4.191406 14.46875 -4.484375 C 15.21875 -4.773438 15.914062 -5.234375 16.5625 -5.859375 L 19.4375 -2.734375 C 17.675781 -0.722656 15.113281 0.28125 11.75 0.28125 C 9.644531 0.28125 7.78125 -0.128906 6.15625 -0.953125 C 4.539062 -1.773438 3.296875 -2.910156 2.421875 -4.359375 C 1.546875 -5.816406 1.109375 -7.46875 1.109375 -9.3125 C 1.109375 -11.144531 1.539062 -12.789062 2.40625 -14.25 C 3.269531 -15.71875 4.457031 -16.859375 5.96875 -17.671875 C 7.488281 -18.492188 9.179688 -18.90625 11.046875 -18.90625 C 12.867188 -18.90625 14.519531 -18.515625 16 -17.734375 C 17.476562 -16.953125 18.640625 -15.828125 19.484375 -14.359375 C 20.328125 -12.890625 20.75 -11.1875 20.75 -9.25 Z M 11.078125 -14.828125 C 9.859375 -14.828125 8.832031 -14.476562 8 -13.78125 C 7.164062 -13.09375 6.660156 -12.148438 6.484375 -10.953125 L 15.65625 -10.953125 C 15.46875 -12.128906 14.957031 -13.066406 14.125 -13.765625 C 13.300781 -14.472656 12.285156 -14.828125 11.078125 -14.828125 Z M 11.078125 -14.828125 "/></g></g></g></svg>