<svg id="visual" viewBox="0 0 900 600" width="900" height="600" xmlns="http://www.w3.org/2000/svg" xmlns:xlink="http://www.w3.org/1999/xlink" version="1.1"><rect x="0" y="0" width="900" height="600" fill="#fff"></rect><g transform="translate(456.9448418240794 260.00137781272065)"><path d="M164.5 -279.4C219.6 -253 275.2 -222 302.6 -174.7C329.9 -127.3 329 -63.7 341.7 7.3C354.4 78.3 380.7 156.7 369.8 232.4C358.9 308.2 310.7 381.4 242.8 407.3C175 433.1 87.5 411.6 12.3 390.3C-63 369.1 -126 348.2 -181.7 315.4C-237.4 282.6 -285.9 237.8 -324.4 183.2C-362.9 128.7 -391.4 64.3 -385.5 3.4C-379.6 -57.5 -339.2 -115 -301.3 -170.6C-263.4 -226.1 -227.9 -279.8 -178.1 -309.2C-128.3 -338.6 -64.2 -343.8 -4.8 -335.6C54.7 -327.4 109.3 -305.7 164.5 -279.4" fill="#A594F9"></path></g></svg>