<svg id="visual" viewBox="0 0 900 600" width="900" height="600" xmlns="http://www.w3.org/2000/svg" xmlns:xlink="http://www.w3.org/1999/xlink" version="1.1"><rect x="0" y="0" width="900" height="600" fill="#fff"></rect><g transform="translate(456.61123559110627 323.1292482460729)"><path d="M112.4 -198.4C156.4 -169.2 210.3 -160.8 252.2 -131.3C294.1 -101.7 324 -50.8 314.7 -5.4C305.3 40 256.6 80 219 117.1C181.4 154.2 154.9 188.4 120.3 199.6C85.7 210.9 42.8 199.2 -8.5 213.9C-59.8 228.6 -119.7 269.8 -152 257.2C-184.3 244.6 -189.2 178.3 -221.7 126.5C-254.3 74.7 -314.7 37.3 -327.1 -7.2C-339.5 -51.7 -304 -103.3 -269.5 -151.8C-235 -200.3 -201.5 -245.7 -156.7 -274.5C-112 -303.3 -56 -315.7 -10.9 -296.8C34.2 -277.8 68.3 -227.7 112.4 -198.4" fill="#A594F9"></path></g></svg>