<svg id="visual" viewBox="0 0 900 600" width="900" height="600" xmlns="http://www.w3.org/2000/svg" xmlns:xlink="http://www.w3.org/1999/xlink" version="1.1"><rect x="0" y="0" width="900" height="600" fill="#fff"></rect><defs><linearGradient id="grad1_0" x1="33.3%" y1="0%" x2="100%" y2="100%"><stop offset="20%" stop-color="#ffffff" stop-opacity="1"></stop><stop offset="80%" stop-color="#ffffff" stop-opacity="1"></stop></linearGradient></defs><defs><linearGradient id="grad2_0" x1="0%" y1="0%" x2="66.7%" y2="100%"><stop offset="20%" stop-color="#ffffff" stop-opacity="1"></stop><stop offset="80%" stop-color="#ffffff" stop-opacity="1"></stop></linearGradient></defs><g transform="translate(900, 0)"><path d="M0 486.7C-70.1 487.5 -140.1 488.2 -186.3 449.7C-232.4 411.2 -254.7 333.6 -279.3 279.3C-303.9 225 -330.9 194.2 -365.9 151.5C-400.8 108.9 -443.8 54.4 -486.7 0L0 0Z" fill="#219bcc"></path></g><g transform="translate(0, 600)"><path d="M0 -486.7C69.5 -485.8 139.1 -484.8 186.3 -449.7C233.5 -414.6 258.3 -345.4 297 -297C335.7 -248.6 388.3 -220.9 422.2 -174.9C456.2 -128.9 471.5 -64.4 486.7 0L0 0Z" fill="#219bcc"></path></g></svg>