<svg xmlns="http://www.w3.org/2000/svg" xmlns:xlink="http://www.w3.org/1999/xlink" width="1080" zoomAndPan="magnify" viewBox="0 0 810 809.999993" height="1080" preserveAspectRatio="xMidYMid meet" version="1.0"><defs><filter x="0%" y="0%" width="100%" height="100%" id="52b5cfb3b1"><feColorMatrix values="0 0 0 0 1 0 0 0 0 1 0 0 0 0 1 0 0 0 1 0" color-interpolation-filters="sRGB"/></filter><clipPath id="e69887f2f6"><path d="M 84.246094 0 L 810 0 L 810 810 L 84.246094 810 Z M 84.246094 0 " clip-rule="nonzero"/></clipPath><mask id="cb63d56141"><g filter="url(#52b5cfb3b1)"><rect x="-81" width="972" fill="#000000" y="-80.999999" height="971.999992" fill-opacity="0.32"/></g></mask><clipPath id="08fe51d465"><path d="M 10 5 L 668 5 L 668 367 L 10 367 Z M 10 5 " clip-rule="nonzero"/></clipPath><clipPath id="e603ad07ab"><rect x="0" width="668" y="0" height="367"/></clipPath><clipPath id="4340a01f7a"><path d="M 195.410156 135 L 663 135 L 663 663 L 195.410156 663 Z M 195.410156 135 " clip-rule="nonzero"/></clipPath><clipPath id="e25c825b37"><path d="M 259 111.96875 L 769 111.96875 L 769 810 L 259 810 Z M 259 111.96875 " clip-rule="nonzero"/></clipPath><clipPath id="bba40da312"><path d="M 9.808594 318.949219 L 181.558594 318.949219 L 181.558594 490.699219 L 9.808594 490.699219 Z M 9.808594 318.949219 " clip-rule="nonzero"/></clipPath></defs><rect x="-81" width="972" fill="#ffffff" y="-80.999999" height="971.999992" fill-opacity="1"/><rect x="-81" width="972" fill="#ffffff" y="-80.999999" height="971.999992" fill-opacity="1"/><g clip-path="url(#e69887f2f6)"><path fill="#2687d7" d="M 84.246094 0 L 812.9375 0 L 812.9375 851.089844 L 84.246094 851.089844 Z M 84.246094 0 " fill-opacity="1" fill-rule="nonzero"/></g><g mask="url(#cb63d56141)"><g transform="matrix(1, 0, 0, 1, 142, 443)"><g clip-path="url(#e603ad07ab)"><g clip-path="url(#08fe51d465)"><path fill="#19486e" d="M 24.730469 379.734375 C 38.785156 351.433594 62.140625 326.042969 63.984375 294.542969 C 66.695312 248.894531 22.984375 208.964844 29.285156 163.703125 C 34.324219 127.359375 70.476562 102.835938 106.335938 94.890625 C 142.097656 86.941406 179.511719 90.722656 215.855469 85.585938 C 261.503906 79.1875 303.859375 59.03125 346.113281 40.710938 C 388.371094 22.394531 432.664062 5.238281 478.699219 5.433594 C 524.738281 5.628906 573.488281 26.851562 594.132812 68.042969 C 606.441406 92.46875 607.699219 120.960938 617.292969 146.546875 C 635.320312 194.71875 679.710938 226.894531 715.375 263.820312 C 751.140625 300.746094 780.796875 354.925781 760.058594 401.929688 C 737.472656 453.105469 670.019531 465.605469 631.640625 506.214844 C 595.777344 544.109375 585.214844 606.527344 538.015625 628.816406 C 505.933594 643.9375 467.554688 634.246094 435.472656 619.03125 C 403.394531 603.8125 373.347656 583.074219 338.75 575.320312 C 255.980469 556.808594 166.523438 602.070312 83.558594 573.1875 C 11.257812 547.792969 -5.992188 441.472656 24.730469 379.734375 Z M 24.730469 379.734375 " fill-opacity="1" fill-rule="nonzero"/></g></g></g></g><path fill="#ebaa71" d="M 768.058594 640.71875 L 768.058594 851.699219 L 752.382812 851.699219 L 752.382812 656.394531 L 697.890625 656.394531 L 686.199219 728.929688 L 634.574219 728.929688 L 634.574219 839.921875 L 670.453125 839.921875 L 671.246094 839.929688 L 671.351562 839.917969 C 674.546875 839.917969 677.1875 842.5625 677.1875 845.808594 C 677.1875 849.054688 674.546875 851.699219 671.296875 851.699219 C 668.050781 851.699219 665.40625 849.058594 665.40625 845.808594 C 665.40625 844.984375 665.585938 844.171875 665.941406 843.386719 L 666.417969 842.339844 L 594.066406 842.339844 L 594.542969 843.382812 C 594.894531 844.167969 595.074219 844.984375 595.074219 845.808594 C 595.074219 849.054688 592.433594 851.699219 589.183594 851.699219 C 585.9375 851.699219 583.296875 849.058594 583.296875 845.808594 C 583.296875 842.5625 585.9375 839.917969 589.183594 839.917969 L 625.910156 839.917969 L 625.910156 728.929688 L 559.953125 728.929688 L 588.609375 825.03125 L 570.347656 825.03125 L 575.382812 851.699219 L 560.523438 851.699219 L 557.929688 841.246094 L 541.046875 851.699219 L 498.714844 851.699219 C 498.871094 849.257812 500.660156 840.574219 517.648438 835.210938 C 520.703125 834.25 524.125 831.222656 527.824219 826.210938 L 528.695312 825.03125 L 523.914062 825.03125 L 505.714844 722.949219 L 504.246094 723.015625 L 495.347656 825.027344 L 484.921875 825.027344 L 489.957031 851.699219 L 475.097656 851.699219 L 472.5 841.246094 L 455.621094 851.699219 L 413.289062 851.699219 C 413.445312 849.257812 415.234375 840.574219 432.222656 835.210938 C 435.277344 834.25 438.703125 831.21875 442.402344 826.210938 L 443.273438 825.027344 L 430.664062 825.027344 L 466.191406 682.726562 C 468.089844 675.121094 474.324219 669.449219 482.074219 668.28125 L 544.117188 662.699219 L 545.019531 656.390625 L 275.90625 656.390625 L 275.90625 851.699219 L 260.230469 851.699219 L 260.230469 640.71875 L 310.1875 640.71875 L 292.792969 568.125 C 292.660156 567.570312 292.789062 566.992188 293.144531 566.546875 C 293.496094 566.097656 294.023438 565.839844 294.59375 565.839844 L 390.660156 565.839844 C 391.519531 565.839844 392.261719 566.425781 392.460938 567.261719 L 409.125 636.820312 L 479.472656 636.820312 C 479.816406 636.820312 480.09375 637.097656 480.09375 637.4375 L 480.09375 638.617188 C 480.09375 638.957031 479.816406 639.234375 479.476562 639.238281 L 479.480469 640.71875 L 529.265625 640.71875 L 529.789062 626.941406 L 529.058594 626.734375 L 529.027344 627.496094 L 510.976562 622.371094 C 510.945312 622.363281 510.917969 622.355469 510.882812 622.355469 C 510.378906 622.335938 504.03125 622.03125 500.445312 621.855469 C 498.859375 621.78125 497.3125 621.308594 495.949219 620.484375 L 481.542969 611.746094 C 479.289062 610.378906 477.949219 607.898438 478.035156 605.265625 L 478.257812 598.515625 C 478.300781 597.15625 479.59375 596.1875 480.910156 596.523438 L 502.738281 602.121094 C 503.085938 602.21875 503.382812 601.851562 503.214844 601.53125 L 500.949219 597.160156 C 500.914062 597.09375 500.859375 597.035156 500.792969 596.996094 L 496.148438 594.242188 C 495.28125 593.730469 494.679688 592.871094 494.492188 591.886719 L 494.363281 591.191406 C 494.125 589.9375 495.304688 588.871094 496.53125 589.242188 L 503.863281 591.453125 C 505.074219 591.820312 506.191406 592.441406 507.136719 593.277344 L 520.207031 605.730469 C 520.257812 605.777344 520.320312 605.8125 520.386719 605.832031 L 529.757812 608.320312 L 529.730469 609.078125 L 530.460938 609.273438 L 530.6875 603.40625 L 552.09375 606.945312 L 552.308594 605.394531 L 551.929688 605.136719 C 551.386719 604.761719 538.714844 595.75 546.953125 575.515625 L 547.5 574.128906 L 546.191406 574.363281 C 534.203125 576.546875 524.65625 577.652344 517.816406 577.652344 C 515.054688 577.652344 512.722656 577.46875 510.890625 577.105469 C 498.234375 574.609375 439.199219 539.375 431.664062 534.855469 L 445.492188 520.175781 L 444.894531 519.726562 L 444.382812 520.269531 L 429.96875 509.488281 C 429.96875 509.488281 421.15625 505.710938 418.140625 504.296875 C 416.332031 503.449219 414.824219 502.078125 413.820312 500.355469 L 407.964844 490.339844 C 407.257812 489.128906 406.929688 487.734375 407.027344 486.335938 L 407.773438 475.304688 C 407.878906 473.792969 409.613281 472.996094 410.828125 473.902344 L 430.316406 488.21875 L 429.640625 482.265625 L 426.097656 477.792969 C 425.550781 477.101562 425.324219 476.203125 425.480469 475.332031 L 425.757812 473.78125 C 425.929688 472.828125 427.050781 472.398438 427.816406 472.988281 L 434.417969 478.09375 C 435.417969 478.867188 436.238281 479.847656 436.824219 480.964844 L 444.625 497.367188 L 457.324219 506.535156 L 456.8125 507.078125 L 457.417969 507.515625 L 460.476562 504.261719 L 521.640625 539.429688 L 559.550781 530.039062 C 567.195312 528.144531 575.089844 527.027344 583.027344 526.714844 L 583.027344 517.460938 L 573.730469 517.460938 C 571.480469 517.460938 569.570312 515.824219 569.21875 513.605469 L 567.796875 504.5625 L 563.234375 501.75 C 562.542969 501.324219 562.328125 500.421875 562.75 499.730469 L 568.738281 492.410156 L 568.738281 488.757812 C 568.738281 486.550781 569.097656 484.429688 569.746094 482.4375 C 569.910156 482.691406 570.109375 482.945312 570.300781 483.199219 C 570.351562 483.023438 570.394531 482.839844 570.449219 482.664062 L 570.558594 482.332031 L 570.371094 482.035156 C 569.511719 480.703125 569.132812 479.425781 569.238281 478.246094 C 569.90625 470.652344 580.550781 467.25 590.796875 467.25 C 593.703125 467.25 596.484375 467.539062 598.84375 468.085938 C 612.390625 471.214844 618.738281 484.660156 621.675781 495.390625 C 624.195312 504.585938 627.878906 508.628906 631.4375 512.539062 C 633.292969 514.574219 635.042969 516.496094 636.675781 519.128906 C 639.542969 523.75 640.582031 529.285156 639.449219 533.941406 C 638.566406 537.570312 636.449219 540.476562 633.324219 542.339844 L 632.597656 542.777344 L 633.113281 543.449219 C 635.230469 546.089844 636.980469 548.855469 638.3125 551.671875 C 640.390625 556.0625 642.445312 560.679688 644.417969 565.386719 L 644.609375 565.84375 L 686.628906 565.84375 C 693.035156 565.84375 699.109375 568.65625 703.289062 573.5625 C 707.535156 578.550781 709.371094 585.132812 708.328125 591.625 L 700.414062 640.71875 Z M 768.058594 640.71875 " fill-opacity="1" fill-rule="nonzero"/><path fill="#d37643" d="M 643 112.710938 L 643 392.792969 L 431.238281 392.792969 L 431.238281 350.855469 L 430.378906 350.996094 C 421.777344 352.378906 414.476562 353.445312 408.671875 354.164062 L 408.023438 354.242188 L 408.023438 435.765625 L 196.265625 435.765625 L 196.265625 155.683594 L 408.023438 155.683594 L 408.023438 320.253906 L 431.238281 318.546875 L 431.238281 112.710938 Z M 643 112.710938 " fill-opacity="1" fill-rule="nonzero"/><path fill="#7bc3ff" d="M 404.570312 191.691406 L 407.011719 191.691406 L 407.011719 380.265625 L 331.511719 380.265625 L 314.425781 273.625 L 314.421875 267.816406 L 319.523438 267.816406 C 321.769531 267.816406 325.09375 267.277344 325.835938 263.960938 C 327.320312 257.335938 328.570312 243.730469 327.011719 236.046875 C 326.226562 232.164062 325.066406 228.882812 323.414062 226.242188 C 322.007812 219.519531 311.792969 215.820312 303.75 215.820312 C 289.730469 215.820312 282.265625 217.855469 278.199219 227.898438 C 270.730469 246.363281 289.859375 263.007812 289.859375 263.007812 L 289.859375 273.625 L 260.230469 380.265625 L 324.347656 380.265625 L 324.347656 426.667969 L 220.6875 426.667969 L 220.6875 383.109375 L 198.71875 383.109375 L 198.71875 161.582031 L 242.65625 161.582031 L 242.65625 171.589844 L 404.570312 171.589844 Z M 686.632812 565.101562 L 645.105469 565.101562 C 646.003906 567.242188 646.894531 569.429688 647.773438 571.652344 L 557.601562 571.652344 L 543.464844 725.078125 L 559.578125 725.078125 L 560.949219 729.671875 L 686.828125 729.671875 L 698.519531 657.136719 L 682.828125 657.136719 L 682.828125 639.976562 L 701.285156 639.976562 L 709.058594 591.742188 C 711.308594 577.777344 700.640625 565.101562 686.632812 565.101562 Z M 466.753906 805.792969 L 441.804688 825.769531 C 438.804688 829.832031 435.34375 833.453125 432 834.507812 C 411.261719 841.050781 412.546875 852.441406 412.546875 852.441406 L 455.832031 852.441406 L 472.027344 842.414062 L 474.519531 852.441406 L 490.851562 852.441406 L 485.816406 825.769531 Z M 546.261719 798.878906 L 527.226562 825.773438 C 524.230469 829.832031 520.769531 833.453125 517.425781 834.507812 C 496.6875 841.050781 497.972656 852.441406 497.972656 852.441406 L 541.257812 852.441406 L 557.453125 842.414062 L 559.945312 852.441406 L 576.277344 852.441406 L 571.242188 825.773438 Z M 289.859375 276.742188 L 289.859375 273.625 Z M 637.574219 221 L 516.722656 221 L 516.722656 259.230469 L 637.574219 259.230469 Z M 637.574219 295.722656 L 528.476562 295.722656 L 528.476562 348.671875 L 637.574219 348.671875 Z M 640.648438 354.101562 L 592.921875 354.101562 L 592.921875 386.820312 L 640.648438 386.820312 Z M 481.609375 118.632812 L 436.65625 118.632812 L 436.65625 131.960938 L 481.609375 131.960938 Z M 481.609375 118.632812 " fill-opacity="1" fill-rule="nonzero"/><g clip-path="url(#4340a01f7a)"><path fill="#ffffff" d="M 544.164062 657.136719 L 593.582031 657.136719 C 590.90625 658.265625 588.527344 659.945312 586.558594 662.015625 L 543.464844 662.015625 Z M 645.105469 565.101562 C 643.050781 560.203125 640.972656 555.5625 638.984375 551.351562 C 637.582031 548.394531 635.78125 545.589844 633.691406 542.988281 C 622.886719 549.429688 610.746094 545.003906 603.363281 532.46875 L 583.03125 540.152344 L 583.03125 525.972656 C 575.058594 526.285156 567.132812 527.398438 559.375 529.320312 L 521.757812 538.640625 L 460.34375 503.332031 L 457.328125 506.535156 L 444.386719 520.273438 L 430.496094 535.019531 C 430.496094 535.019531 497.011719 575.125 510.75 577.835938 C 518.457031 579.359375 532.796875 577.558594 546.328125 575.097656 C 546.308594 575.144531 546.289062 575.191406 546.269531 575.238281 C 537.691406 596.316406 551.515625 605.75 551.515625 605.75 L 551.46875 606.09375 L 529.980469 602.542969 L 529.757812 608.324219 L 529.027344 627.5 L 528.550781 639.980469 L 659.980469 639.980469 C 666.566406 625.136719 656.125 591.371094 645.105469 565.101562 Z M 479.472656 636.078125 L 409.710938 636.078125 L 393.183594 567.089844 C 392.902344 565.925781 391.859375 565.101562 390.660156 565.101562 L 294.59375 565.101562 C 292.921875 565.101562 291.6875 566.667969 292.074219 568.296875 L 309.25 639.976562 L 407.011719 652.265625 L 479.480469 639.976562 C 480.230469 639.972656 480.835938 639.367188 480.835938 638.617188 L 480.835938 637.4375 C 480.835938 636.6875 480.226562 636.078125 479.472656 636.078125 Z M 445.105469 291.601562 L 451.003906 291.601562 L 454.117188 297.457031 L 457.226562 291.601562 L 564.042969 291.601562 C 566.574219 291.601562 568.625 289.550781 568.625 287.023438 L 568.625 266.945312 C 568.625 264.417969 566.574219 262.367188 564.042969 262.367188 L 445.105469 262.367188 C 442.574219 262.367188 440.523438 264.417969 440.523438 266.945312 L 440.523438 287.023438 C 440.523438 289.550781 442.574219 291.601562 445.105469 291.601562 Z M 445.105469 215.144531 L 451.003906 215.144531 L 454.117188 221 L 457.226562 215.144531 L 548.832031 215.144531 C 551.363281 215.144531 553.414062 213.097656 553.414062 210.566406 L 553.414062 140.171875 C 553.414062 137.640625 551.363281 135.589844 548.832031 135.589844 L 445.105469 135.589844 C 442.574219 135.589844 440.523438 137.640625 440.523438 140.171875 L 440.523438 210.566406 C 440.523438 213.09375 442.574219 215.144531 445.105469 215.144531 Z M 408.761719 436.507812 L 195.523438 436.507812 L 195.523438 154.941406 L 408.761719 154.941406 L 408.761719 319.460938 L 430.496094 317.859375 L 466.753906 315.191406 L 467.070312 316.808594 L 470.65625 335.199219 L 472.4375 344.34375 C 472.4375 344.34375 451.199219 348.394531 430.496094 351.726562 C 422.804688 352.964844 415.191406 354.105469 408.761719 354.898438 Z M 229.53125 168.265625 C 229.53125 170.101562 231.023438 171.589844 232.859375 171.589844 C 234.695312 171.589844 236.183594 170.101562 236.183594 168.265625 C 236.183594 166.429688 234.695312 164.941406 232.859375 164.941406 C 231.023438 164.941406 229.53125 166.429688 229.53125 168.265625 Z M 217.539062 168.265625 C 217.539062 170.101562 219.03125 171.589844 220.863281 171.589844 C 222.703125 171.589844 224.191406 170.101562 224.191406 168.265625 C 224.191406 166.429688 222.703125 164.941406 220.863281 164.941406 C 219.027344 164.941406 217.539062 166.429688 217.539062 168.265625 Z M 205.550781 168.265625 C 205.550781 170.101562 207.039062 171.589844 208.875 171.589844 C 210.710938 171.589844 212.199219 170.101562 212.199219 168.265625 C 212.199219 166.429688 210.710938 164.941406 208.875 164.941406 C 207.039062 164.941406 205.550781 166.429688 205.550781 168.265625 Z M 269.21875 404.199219 C 269.21875 394.601562 261.4375 386.820312 251.835938 386.820312 C 242.238281 386.820312 234.457031 394.601562 234.457031 404.199219 C 234.457031 413.800781 242.238281 421.582031 251.835938 421.582031 C 261.4375 421.582031 269.21875 413.800781 269.21875 404.199219 Z M 319.523438 404.199219 C 319.523438 394.601562 311.742188 386.820312 302.140625 386.820312 C 292.542969 386.820312 284.757812 394.601562 284.757812 404.199219 C 284.757812 413.800781 292.542969 421.582031 302.140625 421.582031 C 311.742188 421.582031 319.523438 413.800781 319.523438 404.199219 Z M 398.734375 355.90625 C 395.25 356.128906 392.824219 356.074219 391.964844 355.632812 C 388.910156 354.058594 368.015625 343.273438 349.113281 333.519531 L 352.445312 371.898438 L 398.734375 371.898438 Z M 398.734375 181.585938 L 205.550781 181.585938 L 205.550781 371.898438 L 230.953125 371.898438 L 240.53125 324.515625 C 243.433594 310.167969 252.355469 297.761719 265.03125 290.449219 L 284.398438 279.277344 L 286.433594 273.625 L 289.863281 273.625 L 289.863281 281.714844 L 302.386719 302.269531 L 314.425781 285.054688 L 314.425781 273.625 L 317.851562 273.625 L 319.886719 279.277344 C 319.886719 279.277344 328.097656 281.402344 336.800781 284.917969 C 345.5 288.433594 398.734375 320.195312 398.734375 320.195312 Z M 251.835938 393.097656 C 249.363281 393.097656 247.351562 395.105469 247.351562 397.582031 L 247.351562 404.601562 C 247.351562 406.671875 248.761719 408.394531 250.667969 408.914062 L 250.667969 412.964844 L 248.132812 412.964844 L 248.132812 415.304688 L 255.542969 415.304688 L 255.542969 412.964844 L 253.007812 412.964844 L 253.007812 408.914062 C 254.914062 408.394531 256.320312 406.671875 256.320312 404.601562 L 256.320312 397.582031 C 256.320312 395.105469 254.3125 393.097656 251.835938 393.097656 Z M 307.476562 400.957031 C 307.476562 400.054688 306.746094 399.328125 305.847656 399.328125 L 294.996094 399.328125 C 294.097656 399.328125 293.367188 400.058594 293.367188 400.957031 L 293.367188 407.449219 C 293.367188 408.347656 294.097656 409.074219 294.996094 409.074219 L 305.847656 409.074219 C 306.746094 409.074219 307.476562 408.347656 307.476562 407.449219 L 307.476562 406.636719 L 310.917969 408.851562 L 310.917969 399.550781 L 307.476562 401.765625 Z M 434.4375 387.917969 L 592.921875 387.917969 L 592.921875 355.585938 L 434.4375 355.585938 Z M 434.4375 387.917969 " fill-opacity="1" fill-rule="nonzero"/></g><g clip-path="url(#e25c825b37)"><path fill="#000000" d="M 677.929688 845.8125 C 677.929688 849.472656 674.960938 852.441406 671.296875 852.441406 C 667.636719 852.441406 664.667969 849.472656 664.667969 845.8125 C 664.667969 844.835938 664.890625 843.914062 665.269531 843.082031 L 595.21875 843.082031 C 595.59375 843.914062 595.820312 844.835938 595.820312 845.8125 C 595.820312 849.472656 592.851562 852.441406 589.1875 852.441406 C 585.527344 852.441406 582.558594 849.472656 582.558594 845.8125 C 582.558594 842.148438 585.527344 839.179688 589.1875 839.179688 C 589.226562 839.179688 589.257812 839.191406 589.296875 839.191406 L 589.296875 839.183594 L 625.171875 839.183594 L 625.171875 729.671875 L 635.3125 729.671875 L 635.3125 839.183594 L 671.191406 839.183594 L 671.191406 839.191406 C 671.226562 839.191406 671.261719 839.179688 671.296875 839.179688 C 674.960938 839.179688 677.929688 842.148438 677.929688 845.8125 Z M 560.949219 729.671875 L 556.53125 714.851562 L 580.804688 714.851562 L 580.804688 676.386719 C 580.804688 670.8125 583.003906 665.761719 586.558594 662.015625 L 543.464844 662.015625 L 481.964844 667.550781 C 473.941406 668.761719 467.433594 674.679688 465.46875 682.550781 L 429.714844 825.769531 L 496.027344 825.769531 L 504.984375 723.082031 L 523.296875 825.773438 L 589.605469 825.773438 Z M 595.992188 507.375 C 596.558594 510.433594 597.105469 513.445312 597.394531 515.203125 C 598.507812 521.996094 600.609375 527.792969 603.363281 532.46875 C 610.746094 545.003906 622.886719 549.429688 633.691406 542.988281 C 633.699219 542.984375 633.703125 542.980469 633.710938 542.976562 C 641.941406 538.058594 642.460938 527.035156 637.308594 518.738281 C 632.390625 510.8125 626.136719 508.855469 622.394531 495.195312 C 618.398438 480.597656 610.660156 470.054688 599.015625 467.363281 C 588.4375 464.921875 569.449219 467.496094 568.503906 478.179688 C 568.375 479.617188 568.859375 481.046875 569.75 482.4375 C 573.484375 488.257812 584.589844 493.425781 590.421875 495.828125 C 592.640625 492.691406 596.738281 490.953125 599.269531 492.511719 C 602.367188 494.417969 601.691406 503.121094 595.992188 507.375 Z M 643.738281 393.53125 L 430.496094 393.53125 L 430.496094 351.726562 C 451.199219 348.394531 472.441406 344.34375 472.441406 344.34375 L 470.65625 335.199219 L 482.8125 334.0625 C 482.8125 334.0625 492.300781 335.441406 495.613281 335.808594 C 497.597656 336.03125 499.597656 335.644531 501.355469 334.703125 L 511.578125 329.210938 C 512.8125 328.550781 513.820312 327.53125 514.46875 326.289062 L 519.585938 316.488281 C 520.289062 315.144531 519.222656 313.558594 517.714844 313.699219 L 493.617188 315.738281 L 497.300781 311.011719 L 502.65625 309.046875 C 503.488281 308.742188 504.148438 308.09375 504.46875 307.269531 L 505.039062 305.800781 C 505.390625 304.898438 504.660156 303.949219 503.699219 304.054688 L 495.402344 304.964844 C 494.148438 305.101562 492.9375 305.507812 491.851562 306.160156 L 476.640625 316.074219 L 467.070312 316.804688 L 466.753906 315.191406 L 430.496094 317.859375 L 430.496094 111.96875 L 643.738281 111.96875 Z M 464.507812 125.292969 C 464.507812 127.128906 465.996094 128.617188 467.832031 128.617188 C 469.667969 128.617188 471.15625 127.128906 471.15625 125.292969 C 471.15625 123.453125 469.667969 121.964844 467.832031 121.964844 C 465.996094 121.964844 464.507812 123.453125 464.507812 125.292969 Z M 452.519531 125.292969 C 452.519531 127.128906 454.007812 128.617188 455.84375 128.617188 C 457.679688 128.617188 459.167969 127.128906 459.167969 125.292969 C 459.167969 123.453125 457.679688 121.964844 455.84375 121.964844 C 454.007812 121.964844 452.519531 123.453125 452.519531 125.292969 Z M 440.523438 125.292969 C 440.523438 127.128906 442.015625 128.617188 443.851562 128.617188 C 445.6875 128.617188 447.175781 127.128906 447.175781 125.292969 C 447.175781 123.453125 445.6875 121.964844 443.851562 121.964844 C 442.011719 121.964844 440.523438 123.453125 440.523438 125.292969 Z M 440.523438 210.566406 C 440.523438 213.09375 442.574219 215.144531 445.105469 215.144531 L 451.003906 215.144531 L 454.117188 221 L 457.226562 215.144531 L 548.832031 215.144531 C 551.363281 215.144531 553.414062 213.097656 553.414062 210.566406 L 553.414062 140.171875 C 553.414062 137.640625 551.363281 135.589844 548.832031 135.589844 L 445.105469 135.589844 C 442.574219 135.589844 440.523438 137.640625 440.523438 140.171875 Z M 564.042969 291.601562 C 566.574219 291.601562 568.625 289.550781 568.625 287.023438 L 568.625 266.945312 C 568.625 264.417969 566.574219 262.367188 564.042969 262.367188 L 445.105469 262.367188 C 442.574219 262.367188 440.523438 264.417969 440.523438 266.945312 L 440.523438 287.023438 C 440.523438 289.550781 442.574219 291.601562 445.105469 291.601562 L 451.003906 291.601562 L 454.117188 297.457031 L 457.226562 291.601562 Z M 633.707031 362.734375 C 633.707031 360.203125 631.65625 358.152344 629.128906 358.152344 L 445.105469 358.152344 C 442.574219 358.152344 440.523438 360.203125 440.523438 362.730469 L 440.523438 379.003906 C 440.523438 381.273438 442.363281 383.109375 444.628906 383.109375 L 629.601562 383.109375 C 631.871094 383.109375 633.707031 381.273438 633.707031 379.003906 Z M 633.710938 305.175781 C 633.710938 302.644531 631.660156 300.59375 629.128906 300.59375 L 539.832031 300.59375 C 537.304688 300.59375 535.253906 302.644531 535.253906 305.175781 L 535.253906 336.476562 C 535.253906 338.742188 537.089844 340.582031 539.355469 340.582031 L 617.007812 340.582031 L 620.121094 346.4375 L 623.230469 340.582031 L 629.605469 340.582031 C 631.871094 340.582031 633.710938 338.742188 633.710938 336.476562 Z M 633.710938 228.402344 C 633.710938 226.046875 631.800781 224.136719 629.445312 224.136719 L 524.195312 224.136719 C 521.835938 224.136719 519.925781 226.046875 519.925781 228.402344 L 519.925781 249.105469 C 519.925781 251.464844 521.835938 253.375 524.195312 253.375 L 617.007812 253.375 L 620.121094 259.230469 L 623.230469 253.375 L 629.445312 253.375 C 631.800781 253.375 633.710938 251.464844 633.710938 249.105469 Z M 543.789062 311.519531 L 625.171875 311.519531 L 625.171875 310.738281 L 543.789062 310.738281 Z M 543.789062 320.980469 L 625.171875 320.980469 L 625.171875 320.199219 L 543.789062 320.199219 Z M 543.789062 330.4375 L 625.171875 330.4375 L 625.171875 329.65625 L 543.789062 329.65625 Z M 451.632812 272.644531 L 557.515625 272.644531 L 557.515625 271.863281 L 451.632812 271.863281 Z M 451.632812 282.105469 L 557.515625 282.105469 L 557.515625 281.324219 L 451.632812 281.324219 Z M 542.308594 193.894531 L 451.632812 193.894531 L 451.632812 194.675781 L 542.308594 194.675781 Z M 511.640625 203.355469 L 451.582031 203.355469 L 451.582031 204.136719 L 511.640625 204.136719 Z M 542.308594 174.976562 L 451.632812 174.976562 L 451.632812 175.757812 L 542.308594 175.757812 Z M 542.308594 184.4375 L 451.632812 184.4375 L 451.632812 185.21875 L 542.308594 185.21875 Z M 542.308594 156.0625 L 451.632812 156.0625 L 451.632812 156.839844 L 542.308594 156.839844 Z M 542.308594 165.519531 L 451.632812 165.519531 L 451.632812 166.300781 L 542.308594 166.300781 Z M 542.308594 146.601562 L 451.632812 146.601562 L 451.632812 147.382812 L 542.308594 147.382812 Z M 531.03125 234.417969 L 622.601562 234.417969 L 622.601562 233.636719 L 531.03125 233.636719 Z M 531.03125 243.875 L 622.601562 243.875 L 622.601562 243.097656 L 531.03125 243.097656 Z M 456.839844 375.316406 L 458.957031 375.316406 L 458.957031 372.976562 L 456.839844 372.976562 Z M 464.640625 375.316406 L 466.753906 375.316406 L 466.753906 372.976562 L 464.640625 372.976562 Z M 472.441406 375.316406 L 474.554688 375.316406 L 474.554688 372.976562 L 472.441406 372.976562 Z M 289.859375 276.742188 L 289.859375 371.898438 L 314.425781 371.898438 L 314.425781 276.742188 L 314.421875 276.742188 L 314.421875 280.679688 L 303.164062 298.613281 L 289.859375 279.179688 Z M 289.859375 263.011719 L 289.859375 256.027344 C 279.558594 253.234375 277.675781 239.847656 281.8125 237.300781 C 284.152344 235.859375 287.6875 236.941406 290.25 239.339844 L 291.109375 248.558594 L 296.390625 247.703125 L 296.855469 243.054688 C 305.542969 240.058594 319.671875 234.132812 323.414062 226.246094 C 323.972656 225.066406 324.300781 223.847656 324.34375 222.589844 C 324.597656 215.109375 310.183594 212.59375 302.140625 212.59375 C 288.121094 212.59375 279.425781 216.253906 276.136719 226.578125 C 267.878906 252.53125 289.859375 263.011719 289.859375 263.011719 Z M 335.066406 404.199219 C 335.066406 394.601562 342.847656 386.820312 352.445312 386.820312 C 362.046875 386.820312 369.828125 394.601562 369.828125 404.199219 C 369.828125 413.800781 362.046875 421.582031 352.445312 421.582031 C 342.847656 421.582031 335.066406 413.800781 335.066406 404.199219 Z M 340.085938 407.339844 C 340.085938 408.242188 340.816406 408.976562 341.722656 408.976562 L 345.355469 408.976562 C 346.257812 408.976562 346.992188 408.242188 346.992188 407.339844 L 346.992188 403.613281 L 357.902344 403.613281 L 357.902344 407.339844 C 357.902344 408.242188 358.632812 408.976562 359.539062 408.976562 L 363.171875 408.976562 C 364.078125 408.976562 364.808594 408.242188 364.808594 407.339844 L 364.808594 402.839844 C 364.808594 400.953125 363.28125 399.425781 361.398438 399.425781 L 343.496094 399.425781 C 341.613281 399.425781 340.085938 400.953125 340.085938 402.839844 Z M 701.285156 639.976562 L 259.488281 639.976562 L 259.488281 852.441406 L 276.644531 852.441406 L 276.644531 657.136719 L 751.640625 657.136719 L 751.640625 852.441406 L 768.796875 852.441406 L 768.796875 639.976562 Z M 701.285156 639.976562 " fill-opacity="1" fill-rule="nonzero"/></g><g clip-path="url(#bba40da312)"><path fill="#7bc3ff" d="M 95.855469 318.949219 C 48.414062 318.949219 9.808594 357.554688 9.808594 404.996094 C 9.808594 452.433594 48.414062 491.039062 95.855469 491.039062 C 143.292969 491.039062 181.898438 452.433594 181.898438 404.996094 C 181.898438 357.554688 143.292969 318.949219 95.855469 318.949219 Z M 117.480469 426.621094 C 116.359375 427.738281 114.898438 428.300781 113.421875 428.300781 C 111.957031 428.300781 110.480469 427.738281 109.363281 426.621094 L 91.796875 409.054688 C 90.71875 407.976562 90.117188 406.515625 90.117188 404.996094 L 90.117188 365.15625 C 90.117188 361.988281 92.683594 359.421875 95.855469 359.421875 C 99.023438 359.421875 101.589844 361.988281 101.589844 365.15625 L 101.589844 402.613281 L 117.480469 418.503906 C 119.714844 420.753906 119.714844 424.382812 117.480469 426.621094 Z M 117.480469 426.621094 " fill-opacity="1" fill-rule="nonzero"/></g></svg>