<svg width="23" height="19" viewBox="0 0 23 19" fill="none" xmlns="http://www.w3.org/2000/svg">
<g clip-path="url(#clip0_34_144)">
<path d="M20.9901 15.1104C21.1824 15.1104 21.3198 15.1104 21.4572 15.1104C22.2539 15.1376 22.7759 15.8179 22.5836 16.5798C22.5012 16.8791 22.4188 17.1512 22.2814 17.4505C22.0891 17.9131 21.7319 18.158 21.2099 18.1852C21.155 18.1852 21.0725 18.1852 21.0176 18.1852C14.5612 18.1852 8.07739 18.1852 1.62101 18.1852C0.879219 18.1852 0.522058 17.9403 0.274793 17.2328C0.192371 16.9879 0.109949 16.743 0.0550011 16.4981C-0.109842 15.8179 0.412162 15.1648 1.12648 15.1376C1.29133 15.1376 1.45617 15.1376 1.64849 15.1376C1.64849 15.0288 1.64849 14.9199 1.64849 14.8383C1.64849 11.5458 1.64849 8.25328 1.64849 4.96078C1.64849 4.11725 2.11555 3.65466 2.96724 3.65466C6.59379 3.65466 9.39613 3.65466 13.0227 3.65466C13.0776 3.65466 13.1326 3.65466 13.1601 3.65466C13.4073 3.65466 13.5996 3.81793 13.5722 4.03561C13.5722 4.2533 13.4073 4.41656 13.1601 4.41656C12.8029 4.41656 12.4457 4.41656 12.0886 4.41656C8.79171 4.41656 6.29158 4.41656 2.99471 4.41656C2.52765 4.41656 2.41776 4.52541 2.41776 4.98799C2.41776 8.28049 2.41776 11.573 2.41776 14.8655C2.41776 14.9471 2.41776 15.0288 2.41776 15.1104C3.70903 15.1104 5.00031 15.1104 6.29158 15.1104C6.34653 14.9199 6.374 14.7294 6.42895 14.539C6.84106 13.0968 8.18728 12.0628 9.69835 12.0628C10.7424 12.0628 11.7864 12.0628 12.8304 12.0628C14.5887 12.0628 16.0173 13.3145 16.2646 15.0288C16.2646 15.056 16.2646 15.0832 16.2921 15.1104C17.5834 15.1104 18.8472 15.1104 20.1659 15.1104C20.1659 15.0288 20.1659 14.9471 20.1659 14.8383C20.1659 12.1988 20.1659 10.3485 20.1659 7.70906C20.1659 7.62743 20.1659 7.5458 20.1659 7.46417C20.1934 7.24648 20.3308 7.13764 20.5505 7.13764C20.7703 7.13764 20.8802 7.27369 20.9352 7.46417C20.9627 7.5458 20.9352 7.62743 20.9352 7.70906C20.9352 10.3485 20.9352 12.1716 20.9352 14.8111C20.9901 14.8927 20.9901 15.0015 20.9901 15.1104ZM9.0115 15.8995C8.9016 15.8995 8.84666 15.8995 8.76423 15.8995C6.29158 15.8995 3.81893 15.8995 1.34628 15.8995C1.3188 15.8995 1.26385 15.8995 1.23638 15.8995C0.934167 15.9267 0.769323 16.1172 0.851745 16.4165C0.906693 16.607 0.961641 16.7975 1.04406 16.9879C1.18143 17.3961 1.23638 17.4233 1.67596 17.4233C8.13233 17.4233 14.5887 17.4233 21.0451 17.4233C21.1 17.4233 21.155 17.4233 21.1824 17.4233C21.4022 17.4233 21.5396 17.3145 21.622 17.124C21.677 16.9335 21.7319 16.743 21.8143 16.5798C22.0341 16.1172 21.7594 15.8995 21.3198 15.8995C18.8746 15.9267 16.402 15.8995 13.9568 15.8995C13.8744 15.8995 13.792 15.8995 13.6821 15.8995C13.6821 15.9811 13.6821 16.0083 13.6821 16.0628C13.6821 16.5798 13.5996 16.6614 13.0776 16.6614C11.9512 16.6614 10.8248 16.6614 9.69835 16.6614C9.1214 16.6614 9.06645 16.5798 9.03897 16.0356C9.0115 15.9811 9.0115 15.9539 9.0115 15.8995ZM12.8853 15.8723C12.8853 15.7634 12.8853 15.6546 12.8853 15.5458C12.8853 15.2737 13.0227 15.1376 13.3249 15.1104C13.4348 15.1104 13.5172 15.1104 13.6271 15.1104C14.259 15.1104 14.9184 15.1104 15.5778 15.1104C15.5778 15.0288 15.5503 14.9743 15.5503 14.8927C15.2756 13.6954 14.2041 12.8247 12.9952 12.8247C11.9237 12.7975 10.8523 12.7975 9.75329 12.8247C8.51697 12.8519 7.47296 13.7226 7.19822 14.8927C7.14327 14.9743 7.14327 15.0288 7.14327 15.1104C7.22569 15.1104 7.28064 15.1104 7.33559 15.1104C7.99496 15.1104 8.68181 15.1104 9.34119 15.1104C9.67087 15.1104 9.80824 15.2464 9.80824 15.573C9.80824 15.6546 9.80824 15.7634 9.80824 15.8723C10.8248 15.8723 11.8413 15.8723 12.8853 15.8723Z" fill="#E4E4E4" stroke="#E4E4E4" stroke-width="0.4" stroke-miterlimit="10"/>
<path d="M18.8747 0.579812C19.8088 0.579812 20.743 0.579812 21.6771 0.579812C22.4463 0.579812 22.9409 1.04239 22.9409 1.8043C22.9409 2.75667 22.9409 3.73626 22.9409 4.68863C22.9409 5.42332 22.4463 5.91312 21.7045 5.91312C20.3308 5.91312 18.9571 5.91312 17.5835 5.91312C17.3911 5.91312 17.1713 5.99475 16.979 6.07638C16.4845 6.34849 15.99 6.64781 15.4954 6.94713C15.1108 7.16481 14.8361 7.00155 14.8361 6.56618C14.8361 4.96074 14.8361 3.35531 14.8361 1.72266C14.8361 1.01518 15.3306 0.552601 16.0449 0.525391C16.979 0.579812 17.9131 0.579812 18.8747 0.579812ZM15.5779 6.02196C15.935 5.80428 16.2647 5.64101 16.5669 5.45054C16.8691 5.26006 17.1988 5.17843 17.5835 5.17843C18.9571 5.17843 20.3308 5.17843 21.6771 5.17843C21.9793 5.17843 22.1441 5.04237 22.1441 4.77027C22.1441 3.76347 22.1441 2.75667 22.1441 1.74987C22.1441 1.50498 21.9793 1.34171 21.732 1.34171C19.8088 1.34171 17.9131 1.34171 15.99 1.34171C15.7427 1.34171 15.5779 1.47777 15.5779 1.74987C15.5779 3.16483 15.5779 4.55258 15.5779 6.02196Z" fill="#E4E4E4" stroke="#E4E4E4" stroke-width="0.4" stroke-miterlimit="10"/>
<path d="M14.4238 8.25328C14.4238 9.94035 13.0226 11.3009 11.3193 11.3009C9.61588 11.3009 8.24219 9.91314 8.24219 8.22607C8.24219 6.539 9.64336 5.17847 11.3467 5.17847C13.0501 5.17847 14.4238 6.56621 14.4238 8.25328ZM13.6546 8.22607C13.6546 6.97438 12.6105 5.94037 11.3467 5.94037C10.0829 5.94037 9.03893 6.97438 9.03893 8.22607C9.03893 9.47776 10.0829 10.5118 11.3467 10.5118C12.6105 10.539 13.6546 9.50497 13.6546 8.22607Z" fill="#E4E4E4" stroke="#E4E4E4" stroke-width="0.4" stroke-miterlimit="10"/>
<path d="M16.924 3.6546C16.8691 3.6546 16.8141 3.6546 16.7867 3.6546C16.5119 3.6546 16.3471 3.49134 16.3746 3.27365C16.3746 3.05596 16.5394 2.91991 16.7867 2.8927C16.8966 2.8927 17.0065 2.8927 17.0889 2.8927C17.3361 2.8927 17.5285 3.05596 17.501 3.27365C17.501 3.49134 17.3361 3.62739 17.0889 3.6546C17.0339 3.6546 16.979 3.6546 16.924 3.6546Z" fill="#E4E4E4" stroke="#E4E4E4" stroke-width="0.4" stroke-miterlimit="10"/>
<path d="M18.8472 3.62738C18.7648 3.62738 18.7098 3.62738 18.6274 3.62738C18.4076 3.60017 18.2977 3.46411 18.2703 3.24643C18.2703 3.05595 18.4076 2.89269 18.6274 2.86548C18.7648 2.86548 18.8747 2.86548 19.0121 2.86548C19.2593 2.86548 19.4242 3.02874 19.4242 3.24643C19.4242 3.46411 19.2593 3.62738 19.0121 3.62738C18.9846 3.65459 18.9022 3.65459 18.8472 3.62738Z" fill="#E4E4E4" stroke="#E4E4E4" stroke-width="0.4" stroke-miterlimit="10"/>
<path d="M20.7978 3.6546C20.7703 3.6546 20.7428 3.6546 20.6879 3.6546C20.3857 3.6546 20.2208 3.51855 20.2208 3.27365C20.2208 3.02875 20.3857 2.8927 20.7154 2.8927C20.7978 2.8927 20.8802 2.8927 20.9901 2.8927C21.2374 2.8927 21.4022 3.05596 21.4022 3.27365C21.4022 3.49134 21.2374 3.62739 20.9901 3.6546C20.9077 3.6546 20.8527 3.6546 20.7978 3.6546Z" fill="#E4E4E4" stroke="#E4E4E4" stroke-width="0.4" stroke-miterlimit="10"/>
</g>
<defs>
<clipPath id="clip0_34_144">
<rect width="23" height="17.7142" fill="white" transform="translate(0 0.525391)"/>
</clipPath>
</defs>
</svg>
